<svg width="48" height="48" viewBox="0 0 48 48" fill="none" xmlns="http://www.w3.org/2000/svg">
<path fill-rule="evenodd" clip-rule="evenodd" d="M26 26C26 27.104 25.104 28 24 28C22.896 28 22 27.104 22 26V18C22 16.896 22.896 16 24 16C25.104 16 26 16.896 26 18V26ZM24 34C22.896 34 22 33.104 22 32C22 30.896 22.896 30 24 30C25.104 30 26 30.896 26 32C26 33.104 25.104 34 24 34ZM45.1207 32.606L29.7767 7.168C28.5787 5.184 26.4186 4 23.9986 4C21.5786 4 19.4186 5.184 18.2206 7.168L2.87665 32.606C1.74065 34.492 1.70665 36.76 2.78665 38.672C3.94465 40.726 6.19465 42 8.65465 42H39.3427C41.8027 42 44.0527 40.726 45.2107 38.672C46.2907 36.76 46.2567 34.492 45.1207 32.606Z" fill="#4094EF"/>
</svg>
