<svg width="20" height="20" viewBox="0 0 20 20" fill="none" xmlns="http://www.w3.org/2000/svg">
<path fill-rule="evenodd" clip-rule="evenodd" d="M12.2573 11.0751C12.5832 11.4009 12.5832 11.9276 12.2573 12.2534C12.0948 12.4159 11.8815 12.4976 11.6682 12.4976C11.4548 12.4976 11.2415 12.4159 11.079 12.2534L10.0015 11.1759L8.92401 12.2534C8.76151 12.4159 8.54818 12.4976 8.33484 12.4976C8.12151 12.4976 7.90818 12.4159 7.74568 12.2534C7.41984 11.9276 7.41984 11.4009 7.74568 11.0751L8.82318 9.9976L7.74568 8.9201C7.41984 8.59427 7.41984 8.0676 7.74568 7.74177C8.07151 7.41594 8.59818 7.41594 8.92401 7.74177L10.0015 8.81927L11.079 7.74177C11.4048 7.41594 11.9315 7.41594 12.2573 7.74177C12.5832 8.0676 12.5832 8.59427 12.2573 8.9201L11.1798 9.9976L12.2573 11.0751ZM10.0013 1.66406C5.4063 1.66406 1.66797 5.4024 1.66797 9.9974C1.66797 14.5924 5.4063 18.3307 10.0013 18.3307C14.5963 18.3307 18.3346 14.5924 18.3346 9.9974C18.3346 5.4024 14.5963 1.66406 10.0013 1.66406Z" fill="#DBDBDB"/>
</svg>
