<svg width="260" height="127" viewBox="0 0 260 127" fill="none" xmlns="http://www.w3.org/2000/svg">
<path d="M155.608 119.361H117.717C112.457 119.361 108.044 115.073 108.147 109.815C108.197 107.361 109.209 105.025 110.965 103.307C112.722 101.588 115.083 100.625 117.543 100.622H138.7C144.194 100.622 148.82 96.3053 148.951 90.8251C148.982 89.4861 148.744 88.1546 148.251 86.9086C147.759 85.6627 147.022 84.5275 146.083 83.5696C145.145 82.6118 144.024 81.8507 142.787 81.331C141.549 80.8113 140.22 80.5436 138.878 80.5435H97.9386C97.095 79.8045 97.609 78.8711 98.3392 78.8711H138.668C145.236 78.8711 150.72 84.2347 150.61 90.7827C150.554 93.8515 149.293 96.776 147.099 98.9274C144.904 101.079 141.951 102.285 138.874 102.288H117.692C113.492 102.288 109.937 105.569 109.809 109.758C109.779 110.789 109.957 111.815 110.331 112.775C110.706 113.736 111.269 114.612 111.989 115.352C112.709 116.092 113.57 116.68 114.521 117.082C115.473 117.484 116.496 117.691 117.529 117.692H155.561C155.782 117.688 155.996 117.767 156.16 117.914C156.324 118.062 156.425 118.265 156.444 118.484C156.45 118.597 156.432 118.711 156.393 118.817C156.354 118.923 156.293 119.02 156.215 119.102C156.136 119.184 156.042 119.249 155.938 119.294C155.833 119.338 155.721 119.361 155.608 119.361Z" fill="#1C2B6B"/>
<path d="M157.914 122.607H162.167V114.086H157.914C156.786 114.086 155.704 114.533 154.906 115.329C154.108 116.124 153.66 117.203 153.66 118.329C153.658 118.888 153.766 119.443 153.979 119.96C154.191 120.478 154.504 120.949 154.899 121.346C155.294 121.744 155.763 122.059 156.28 122.276C156.798 122.492 157.353 122.604 157.914 122.607Z" fill="url(#paint0_linear_503_3188)"/>
<path d="M166.412 117.19H164.423C164.209 117.19 164.003 117.105 163.852 116.954C163.7 116.803 163.615 116.598 163.615 116.384C163.615 116.17 163.7 115.965 163.852 115.814C164.003 115.663 164.209 115.578 164.423 115.578H166.412C166.626 115.579 166.83 115.664 166.981 115.816C167.132 115.967 167.216 116.171 167.216 116.384C167.216 116.597 167.132 116.802 166.981 116.953C166.83 117.104 166.626 117.189 166.412 117.19Z" fill="#192B59"/>
<path d="M166.412 121.104H164.423C164.209 121.104 164.003 121.019 163.852 120.868C163.7 120.717 163.615 120.512 163.615 120.298C163.615 120.084 163.7 119.879 163.852 119.728C164.003 119.577 164.209 119.492 164.423 119.492H166.412C166.626 119.493 166.83 119.578 166.981 119.73C167.132 119.881 167.216 120.085 167.216 120.298C167.216 120.511 167.132 120.716 166.981 120.867C166.83 121.018 166.626 121.103 166.412 121.104Z" fill="#192B59"/>
<path d="M162.673 113.254H162.669C161.841 113.254 161.17 113.923 161.17 114.749V121.937C161.17 122.763 161.841 123.433 162.669 123.433H162.673C163.501 123.433 164.172 122.763 164.172 121.937V114.749C164.172 113.923 163.501 113.254 162.673 113.254Z" fill="url(#paint1_linear_503_3188)"/>
<path d="M95.0599 0H6.29503C2.81838 0 0 2.81132 0 6.27927V20.7259C0 24.1939 2.81838 27.0052 6.29503 27.0052H95.0599C98.5365 27.0052 101.355 24.1939 101.355 20.7259V6.27927C101.355 2.81132 98.5365 0 95.0599 0Z" fill="url(#paint2_linear_503_3188)"/>
<path d="M12.3398 21.2188H54.9943C55.8752 21.2188 56.7199 21.5678 57.3428 22.1891C57.9656 22.8104 58.3155 23.653 58.3155 24.5316V27.0066H9.0293V24.5316C9.02929 23.6548 9.37773 22.8138 9.99828 22.1928C10.6188 21.5718 11.4609 21.2216 12.3398 21.2188Z" fill="url(#paint3_linear_503_3188)"/>
<path d="M11.0107 12.5466C12.1049 12.5466 12.992 11.6617 12.992 10.5702C12.992 9.47861 12.1049 8.59375 11.0107 8.59375C9.91638 8.59375 9.0293 9.47861 9.0293 10.5702C9.0293 11.6617 9.91638 12.5466 11.0107 12.5466Z" fill="#20D357"/>
<path d="M16.8798 12.5466C17.9741 12.5466 18.8612 11.6617 18.8612 10.5702C18.8612 9.47861 17.9741 8.59375 16.8798 8.59375C15.7856 8.59375 14.8984 9.47861 14.8984 10.5702C14.8984 11.6617 15.7856 12.5466 16.8798 12.5466Z" fill="#FFAC00"/>
<path d="M22.7528 12.5466C23.8471 12.5466 24.7342 11.6617 24.7342 10.5702C24.7342 9.47861 23.8471 8.59375 22.7528 8.59375C21.6586 8.59375 20.7715 9.47861 20.7715 10.5702C20.7715 11.6617 21.6586 12.5466 22.7528 12.5466Z" fill="#E64D4E"/>
<path d="M96.7657 11.2929C97.1572 8.88744 95.5196 6.62086 93.1081 6.2304C90.6966 5.83994 88.4244 7.47346 88.033 9.87891C87.6415 12.2844 89.2791 14.5509 91.6906 14.9414C94.1021 15.3318 96.3743 13.6984 96.7657 11.2929Z" fill="#FFAC00"/>
<path d="M85.0619 8.98047H66.7475C66.2052 8.98047 65.7656 9.41896 65.7656 9.95985V11.1832C65.7656 11.7241 66.2052 12.1625 66.7475 12.1625H85.0619C85.6041 12.1625 86.0437 11.7241 86.0437 11.1832V9.95985C86.0437 9.41896 85.6041 8.98047 85.0619 8.98047Z" fill="#FFAC00"/>
<path d="M92.3321 27.0039H9.0293V31.7487H92.3321V27.0039Z" fill="#1C2B6B"/>
<path d="M95.0599 31.75H6.29503C2.81838 31.75 0 34.5613 0 38.0293V52.4759C0 55.9439 2.81838 58.7552 6.29503 58.7552H95.0599C98.5365 58.7552 101.355 55.9439 101.355 52.4759V38.0293C101.355 34.5613 98.5365 31.75 95.0599 31.75Z" fill="url(#paint4_linear_503_3188)"/>
<path d="M12.3398 52.9688H54.9943C55.8752 52.9687 56.7199 53.3178 57.3428 53.9391C57.9656 54.5604 58.3155 55.403 58.3155 56.2816V58.7566H9.0293V56.2816C9.02929 55.4048 9.37773 54.5638 9.99828 53.9428C10.6188 53.3218 11.4609 52.9716 12.3398 52.9688Z" fill="url(#paint5_linear_503_3188)"/>
<path d="M12.9952 42.3202C12.9959 42.7119 12.8801 43.0951 12.6625 43.4211C12.4448 43.7472 12.135 44.0015 11.7724 44.1519C11.4098 44.3023 11.0105 44.3421 10.6253 44.2661C10.24 44.1901 9.88596 44.0017 9.60801 43.725C9.33006 43.4482 9.14066 43.0954 9.06379 42.7113C8.98691 42.3271 9.02603 41.9288 9.17615 41.5668C9.32628 41.2048 9.58071 40.8954 9.90721 40.6777C10.2337 40.46 10.6176 40.3438 11.0103 40.3438C11.5361 40.3437 12.0405 40.5519 12.4126 40.9224C12.7848 41.293 12.9943 41.7957 12.9952 42.3202Z" fill="#20D357"/>
<path d="M18.8644 42.3202C18.8651 42.7119 18.7492 43.0951 18.5316 43.4211C18.3139 43.7472 18.0041 44.0015 17.6415 44.1519C17.2789 44.3023 16.8796 44.3421 16.4944 44.2661C16.1091 44.1901 15.7551 44.0017 15.4772 43.725C15.1992 43.4482 15.0098 43.0954 14.9329 42.7113C14.8561 42.3271 14.8952 41.9288 15.0453 41.5668C15.1954 41.2048 15.4498 40.8954 15.7763 40.6777C16.1028 40.46 16.4867 40.3438 16.8795 40.3438C17.4053 40.3437 17.9096 40.5519 18.2817 40.9224C18.6539 41.293 18.8634 41.7957 18.8644 42.3202Z" fill="#FFAC00"/>
<path d="M24.7433 42.3202C24.744 42.7121 24.6281 43.0954 24.4103 43.4215C24.1924 43.7477 23.8824 44.002 23.5196 44.1523C23.1567 44.3026 22.7574 44.3421 22.372 44.2658C21.9866 44.1895 21.6326 44.0008 21.3548 43.7237C21.077 43.4466 20.8879 43.0935 20.8114 42.7091C20.7349 42.3247 20.7745 41.9263 20.9252 41.5644C21.0759 41.2024 21.3309 40.8932 21.6578 40.676C21.9848 40.4587 22.369 40.3431 22.7619 40.3438C23.2871 40.3447 23.7906 40.5532 24.1619 40.9237C24.5333 41.2941 24.7423 41.7963 24.7433 42.3202Z" fill="#E64D4E"/>
<path d="M94.0779 46.3982C96.335 45.4656 97.4068 42.8844 96.4719 40.633C95.537 38.3816 92.9494 37.3124 90.6923 38.245C88.4352 39.1776 87.3634 41.7587 88.2983 44.0102C89.2332 46.2616 91.8208 47.3308 94.0779 46.3982Z" fill="#FFAC00"/>
<path d="M85.0619 40.7305H66.7475C66.2052 40.7305 65.7656 41.169 65.7656 41.7098V42.9332C65.7656 43.4741 66.2052 43.9125 66.7475 43.9125H85.0619C85.6041 43.9125 86.0437 43.4741 86.0437 42.9332V41.7098C86.0437 41.169 85.6041 40.7305 85.0619 40.7305Z" fill="#FFAC00"/>
<path d="M92.3321 58.7539H9.0293V63.4987H92.3321V58.7539Z" fill="#1C2B6B"/>
<path d="M95.0599 63.5H6.29503C2.81838 63.5 0 66.3113 0 69.7793V84.2259C0 87.6939 2.81838 90.5052 6.29503 90.5052H95.0599C98.5365 90.5052 101.355 87.6939 101.355 84.2259V69.7793C101.355 66.3113 98.5365 63.5 95.0599 63.5Z" fill="url(#paint6_linear_503_3188)"/>
<path d="M12.3398 84.7188H54.9943C55.8752 84.7188 56.7199 85.0678 57.3428 85.6891C57.9656 86.3104 58.3155 87.153 58.3155 88.0316V90.5066H9.0293V88.0316C9.02929 87.1548 9.37773 86.3138 9.99828 85.6928C10.6188 85.0718 11.4609 84.7216 12.3398 84.7188Z" fill="url(#paint7_linear_503_3188)"/>
<path d="M11.0107 76.0466C12.1049 76.0466 12.992 75.1617 12.992 74.0702C12.992 72.9786 12.1049 72.0938 11.0107 72.0938C9.91638 72.0938 9.0293 72.9786 9.0293 74.0702C9.0293 75.1617 9.91638 76.0466 11.0107 76.0466Z" fill="#20D357"/>
<path d="M16.8798 76.0466C17.9741 76.0466 18.8612 75.1617 18.8612 74.0702C18.8612 72.9786 17.9741 72.0938 16.8798 72.0938C15.7856 72.0938 14.8984 72.9786 14.8984 74.0702C14.8984 75.1617 15.7856 76.0466 16.8798 76.0466Z" fill="#FFAC00"/>
<path d="M22.7528 76.0466C23.8471 76.0466 24.7342 75.1617 24.7342 74.0702C24.7342 72.9786 23.8471 72.0938 22.7528 72.0938C21.6586 72.0938 20.7715 72.9786 20.7715 74.0702C20.7715 75.1617 21.6586 76.0466 22.7528 76.0466Z" fill="#E64D4E"/>
<path d="M92.3845 78.4851C94.8275 78.4851 96.808 76.5096 96.808 74.0726C96.808 71.6357 94.8275 69.6602 92.3845 69.6602C89.9414 69.6602 87.9609 71.6357 87.9609 74.0726C87.9609 76.5096 89.9414 78.4851 92.3845 78.4851Z" fill="#FFAC00"/>
<path d="M85.0619 72.4805H66.7475C66.2052 72.4805 65.7656 72.9189 65.7656 73.4598V74.6832C65.7656 75.2241 66.2052 75.6625 66.7475 75.6625H85.0619C85.6041 75.6625 86.0437 75.2241 86.0437 74.6832V73.4598C86.0437 72.9189 85.6041 72.4805 85.0619 72.4805Z" fill="#FFAC00"/>
<path d="M92.3321 90.5039H9.0293V95.2487H92.3321V90.5039Z" fill="#1C2B6B"/>
<path d="M95.0599 95.25H6.29503C2.81838 95.25 0 98.0613 0 101.529V115.976C0 119.444 2.81838 122.255 6.29503 122.255H95.0599C98.5365 122.255 101.355 119.444 101.355 115.976V101.529C101.355 98.0613 98.5365 95.25 95.0599 95.25Z" fill="url(#paint8_linear_503_3188)"/>
<path d="M12.3398 116.469H54.9943C55.8752 116.469 56.7199 116.818 57.3428 117.439C57.9656 118.06 58.3155 118.903 58.3155 119.782V122.257H9.0293V119.782C9.02929 118.905 9.37773 118.064 9.99828 117.443C10.6188 116.822 11.4609 116.472 12.3398 116.469Z" fill="url(#paint9_linear_503_3188)"/>
<path d="M12.9952 105.82C12.9959 106.212 12.8801 106.595 12.6625 106.921C12.4448 107.247 12.135 107.501 11.7724 107.652C11.4098 107.802 11.0105 107.842 10.6253 107.766C10.24 107.69 9.88596 107.502 9.60801 107.225C9.33006 106.948 9.14066 106.595 9.06379 106.211C8.98691 105.827 9.02603 105.429 9.17615 105.067C9.32628 104.705 9.58071 104.395 9.90721 104.178C10.2337 103.96 10.6176 103.844 11.0103 103.844C11.5361 103.844 12.0405 104.052 12.4126 104.422C12.7848 104.793 12.9943 105.296 12.9952 105.82Z" fill="#20D357"/>
<path d="M18.8644 105.82C18.8651 106.212 18.7492 106.595 18.5316 106.921C18.3139 107.247 18.0041 107.501 17.6415 107.652C17.2789 107.802 16.8796 107.842 16.4944 107.766C16.1091 107.69 15.7551 107.502 15.4772 107.225C15.1992 106.948 15.0098 106.595 14.9329 106.211C14.8561 105.827 14.8952 105.429 15.0453 105.067C15.1954 104.705 15.4498 104.395 15.7763 104.178C16.1028 103.96 16.4867 103.844 16.8795 103.844C17.4053 103.844 17.9096 104.052 18.2817 104.422C18.6539 104.793 18.8634 105.296 18.8644 105.82Z" fill="#FFAC00"/>
<path d="M24.7433 105.82C24.744 106.212 24.6281 106.595 24.4103 106.922C24.1924 107.248 23.8824 107.502 23.5196 107.652C23.1567 107.803 22.7574 107.842 22.372 107.766C21.9866 107.689 21.6326 107.501 21.3548 107.224C21.077 106.947 20.8879 106.593 20.8114 106.209C20.7349 105.825 20.7745 105.426 20.9252 105.064C21.0759 104.702 21.3309 104.393 21.6578 104.176C21.9848 103.959 22.369 103.843 22.7619 103.844C23.2871 103.845 23.7906 104.053 24.1619 104.424C24.5333 104.794 24.7423 105.296 24.7433 105.82Z" fill="#E64D4E"/>
<path d="M94.0779 109.898C96.335 108.966 97.4068 106.384 96.4719 104.133C95.537 101.882 92.9494 100.812 90.6923 101.745C88.4352 102.678 87.3634 105.259 88.2983 107.51C89.2332 109.762 91.8208 110.831 94.0779 109.898Z" fill="#FFAC00"/>
<path d="M85.0619 104.23H66.7475C66.2052 104.23 65.7656 104.669 65.7656 105.21V106.433C65.7656 106.974 66.2052 107.413 66.7475 107.413H85.0619C85.6041 107.413 86.0437 106.974 86.0437 106.433V105.21C86.0437 104.669 85.6041 104.23 85.0619 104.23Z" fill="#FFAC00"/>
<path d="M92.3321 122.254H9.0293V126.999H92.3321V122.254Z" fill="#1C2B6B"/>
<path d="M157.795 56.4766H145.262C143.126 56.4766 141.395 58.2036 141.395 60.3339V72.8359C141.395 74.9663 143.126 76.6933 145.262 76.6933H157.795C159.931 76.6933 161.662 74.9663 161.662 72.8359V60.3339C161.662 58.2036 159.931 56.4766 157.795 56.4766Z" fill="url(#paint10_linear_503_3188)"/>
<path d="M156.785 71.8311C159.689 68.9343 159.689 64.2376 156.785 61.3408C153.881 58.4439 149.172 58.444 146.268 61.3408C143.364 64.2376 143.364 68.9343 146.268 71.8311C149.172 74.7279 153.881 74.7279 156.785 71.8311Z" fill="#1C2B6B"/>
<path d="M150.431 66.5876C150.432 66.8508 150.354 67.1083 150.208 67.3275C150.062 67.5467 149.854 67.7176 149.61 67.8187C149.366 67.9197 149.098 67.9463 148.839 67.8952C148.58 67.844 148.343 67.7173 148.156 67.5311C147.969 67.345 147.842 67.1078 147.791 66.8496C147.74 66.5914 147.766 66.3238 147.868 66.0808C147.969 65.8377 148.14 65.6301 148.36 65.4843C148.58 65.3385 148.838 65.261 149.102 65.2617C149.454 65.2617 149.793 65.4014 150.042 65.6501C150.291 65.8987 150.431 66.2359 150.431 66.5876Z" fill="#0B1228"/>
<path d="M155.281 66.5876C155.281 66.8508 155.204 67.1083 155.058 67.3275C154.911 67.5467 154.703 67.7176 154.46 67.8187C154.216 67.9197 153.948 67.9463 153.689 67.8952C153.43 67.844 153.192 67.7173 153.006 67.5311C152.819 67.345 152.692 67.1078 152.641 66.8496C152.589 66.5914 152.616 66.3238 152.717 66.0808C152.819 65.8377 152.99 65.6301 153.21 65.4843C153.429 65.3385 153.688 65.261 153.952 65.2617C154.304 65.2617 154.642 65.4014 154.891 65.6501C155.141 65.8987 155.281 66.2359 155.281 66.5876Z" fill="#0B1228"/>
<path d="M235.166 119.075H224.178C223.042 119.043 221.963 118.57 221.171 117.757C220.379 116.944 219.936 115.855 219.936 114.721C219.936 113.587 220.379 112.498 221.171 111.685C221.963 110.872 223.042 110.399 224.178 110.367H235.166C239.435 110.362 243.528 108.668 246.547 105.657C249.566 102.646 251.264 98.5631 251.269 94.3045V70.2162C251.301 69.0829 251.775 68.0068 252.59 67.2166C253.405 66.4264 254.497 65.9844 255.634 65.9844C256.77 65.9844 257.862 66.4264 258.677 67.2166C259.492 68.0068 259.966 69.0829 259.999 70.2162V94.3045C259.991 100.872 257.372 107.168 252.717 111.812C248.062 116.456 241.75 119.068 235.166 119.075Z" fill="url(#paint11_linear_503_3188)"/>
<path d="M232.246 123.918H188.688V123.564C188.688 119.639 190.251 115.875 193.034 113.099C195.816 110.324 199.59 108.764 203.525 108.764H217.409C221.344 108.764 225.118 110.324 227.9 113.099C230.683 115.875 232.246 119.639 232.246 123.564V123.918Z" fill="url(#paint12_radial_503_3188)"/>
<path d="M223.934 123.918H193.703V108.715C193.703 106.735 194.093 104.775 194.853 102.947C195.612 101.118 196.725 99.4565 198.128 98.0569C199.531 96.6573 201.197 95.5471 203.03 94.7896C204.864 94.0322 206.828 93.6423 208.813 93.6423C210.797 93.6423 212.762 94.0322 214.595 94.7896C216.428 95.5471 218.094 96.6573 219.497 98.0569C220.9 99.4565 222.013 101.118 222.773 102.947C223.532 104.775 223.923 106.735 223.923 108.715V123.918H223.934Z" fill="url(#paint13_linear_503_3188)"/>
<path d="M236.504 44.1641C237.407 44.1641 238.272 44.5217 238.911 45.1582C239.549 45.7947 239.907 46.6581 239.907 47.5583V76.6424H219.268V61.3685C219.266 59.1096 219.711 56.8727 220.577 54.7854C221.442 52.6982 222.712 50.8015 224.312 49.2038C225.913 47.6061 227.814 46.3386 229.906 45.4739C231.998 44.6091 234.24 44.1641 236.504 44.1641Z" fill="#F2DAD4"/>
<path d="M186.621 44.1641C185.719 44.1641 184.854 44.5217 184.215 45.1582C183.577 45.7947 183.219 46.6581 183.219 47.5583V76.6424H203.858V61.3685C203.86 59.1096 203.415 56.8727 202.549 54.7854C201.684 52.6982 200.414 50.8015 198.814 49.2038C197.213 47.6061 195.312 46.3386 193.22 45.4739C191.128 44.6091 188.886 44.1641 186.621 44.1641Z" fill="#E64D4E"/>
<path d="M195.976 66.5859H190.826C190.602 66.5859 190.388 66.4973 190.229 66.3395C190.071 66.1816 189.982 65.9676 189.982 65.7444V53.002C189.983 52.7794 190.073 52.5663 190.231 52.4093C190.389 52.2522 190.603 52.1641 190.826 52.1641C192.415 52.1641 193.938 52.7936 195.062 53.9142C196.185 55.0347 196.816 56.5546 196.816 58.1393V65.7303C196.819 65.8418 196.799 65.9527 196.757 66.0564C196.716 66.1601 196.655 66.2546 196.577 66.3343C196.498 66.414 196.405 66.4773 196.302 66.5205C196.199 66.5637 196.088 66.5859 195.976 66.5859Z" fill="url(#paint14_linear_503_3188)"/>
<path d="M236.504 44.1641C237.407 44.1641 238.272 44.5217 238.911 45.1582C239.549 45.7947 239.907 46.6581 239.907 47.5583V76.6424H219.268V61.3685C219.266 59.1096 219.711 56.8727 220.577 54.7854C221.442 52.6982 222.712 50.8015 224.312 49.2038C225.913 47.6061 227.814 46.3386 229.906 45.4739C231.998 44.6091 234.24 44.1641 236.504 44.1641Z" fill="#E64D4E"/>
<path d="M227.152 66.5859H232.299C232.412 66.5883 232.525 66.5679 232.63 66.5258C232.736 66.4836 232.831 66.4208 232.912 66.3409C232.992 66.261 233.056 66.1657 233.098 66.0608C233.141 65.9559 233.162 65.8435 233.16 65.7303V53.002C233.159 52.7794 233.07 52.5663 232.912 52.4093C232.754 52.2522 232.54 52.1641 232.317 52.1641C230.728 52.1641 229.204 52.7936 228.081 53.9142C226.957 55.0347 226.326 56.5546 226.326 58.1393V65.7303C226.322 65.9529 226.407 66.1679 226.562 66.3283C226.717 66.4886 226.929 66.5813 227.152 66.5859Z" fill="url(#paint15_linear_503_3188)"/>
<path d="M204.316 99.2695H218.809C230.461 99.2695 239.906 89.8486 239.906 78.2272C239.906 66.6058 230.461 57.1849 218.809 57.1849L204.316 57.1849C192.664 57.1849 183.219 66.6058 183.219 78.2272C183.219 89.8486 192.664 99.2695 204.316 99.2695Z" fill="#E64D4E"/>
<path d="M205.351 99.2696H217.463C219.27 99.2696 221.004 98.5532 222.282 97.2782C223.561 96.0031 224.279 94.2737 224.279 92.4705C224.279 91.5774 224.103 90.6929 223.761 89.8676C223.419 89.0423 222.917 88.2923 222.284 87.6606C221.651 87.0289 220.899 86.5277 220.072 86.1858C219.245 85.8439 218.358 85.668 217.463 85.668H205.351C204.456 85.668 203.569 85.8439 202.742 86.1858C201.915 86.5277 201.163 87.0289 200.53 87.6606C199.897 88.2923 199.395 89.0423 199.053 89.8676C198.711 90.6929 198.535 91.5774 198.535 92.4705C198.535 94.2737 199.253 96.0031 200.532 97.2782C201.81 98.5532 203.543 99.2696 205.351 99.2696Z" fill="#E28D91"/>
<path d="M206.96 92.7073C207.077 92.5572 207.224 92.4317 207.39 92.338C207.556 92.2444 207.739 92.1843 207.929 92.1613C208.119 92.1383 208.311 92.1529 208.495 92.2041C208.679 92.2553 208.851 92.3422 209.001 92.4598C209.425 92.7801 209.916 93.0013 210.437 93.1068V91.1551C210.093 90.9741 209.808 90.6995 209.615 90.3631L208.622 88.6484C208.441 88.3362 208.345 87.9822 208.344 87.6215C208.343 87.2609 208.437 86.9063 208.616 86.5932C208.796 86.2801 209.054 86.0194 209.366 85.8372C209.678 85.6549 210.033 85.5575 210.394 85.5547H212.383C212.744 85.5575 213.099 85.6549 213.411 85.8372C213.723 86.0194 213.981 86.2801 214.161 86.5932C214.34 86.9063 214.434 87.2609 214.433 87.6215C214.432 87.9822 214.336 88.3362 214.155 88.6484L213.163 90.3631C212.969 90.6995 212.684 90.9741 212.34 91.1551V93.1316C212.87 93.04 213.373 92.831 213.811 92.5199C213.964 92.3956 214.141 92.3036 214.331 92.2495C214.52 92.1953 214.719 92.1802 214.915 92.2049C215.11 92.2297 215.299 92.2938 215.469 92.3935C215.639 92.4931 215.787 92.6262 215.904 92.7846C216.021 92.943 216.105 93.1235 216.15 93.3151C216.195 93.5067 216.2 93.7054 216.166 93.8991C216.132 94.0929 216.058 94.2777 215.95 94.4424C215.842 94.607 215.702 94.7481 215.537 94.8569C214.302 95.7025 212.834 96.1455 211.335 96.1253C209.837 96.105 208.381 95.6224 207.169 94.7438C206.871 94.5011 206.682 94.1504 206.642 93.7687C206.603 93.3869 206.717 93.0052 206.96 92.7073Z" fill="#192B59"/>
<path d="M203.473 123.921H213.667C213.685 123.243 213.566 122.567 213.318 121.935C213.07 121.303 212.698 120.726 212.223 120.24C211.748 119.754 211.18 119.367 210.553 119.103C209.926 118.839 209.252 118.703 208.571 118.703C207.891 118.703 207.217 118.839 206.59 119.103C205.963 119.367 205.395 119.754 204.92 120.24C204.445 120.726 204.073 121.303 203.825 121.935C203.577 122.567 203.458 123.243 203.476 123.921H203.473Z" fill="#192B59"/>
<path d="M190.539 123.921H200.729C200.747 123.243 200.629 122.567 200.381 121.935C200.133 121.303 199.76 120.726 199.285 120.24C198.811 119.754 198.243 119.367 197.616 119.103C196.989 118.839 196.315 118.703 195.634 118.703C194.953 118.703 194.28 118.839 193.653 119.103C193.025 119.367 192.458 119.754 191.983 120.24C191.508 120.726 191.135 121.303 190.887 121.935C190.639 122.567 190.521 123.243 190.539 123.921Z" fill="#192B59"/>
<path d="M223.792 84.1691C225.719 84.1691 227.28 82.6114 227.28 80.69C227.28 78.7686 225.719 77.2109 223.792 77.2109C221.866 77.2109 220.305 78.7686 220.305 80.69C220.305 82.6114 221.866 84.1691 223.792 84.1691Z" fill="#192B59"/>
<path d="M199.019 84.1691C200.945 84.1691 202.507 82.6114 202.507 80.69C202.507 78.7686 200.945 77.2109 199.019 77.2109C197.093 77.2109 195.531 78.7686 195.531 80.69C195.531 82.6114 197.093 84.1691 199.019 84.1691Z" fill="#192B59"/>
<defs>
<linearGradient id="paint0_linear_503_3188" x1="153.642" y1="118.346" x2="162.185" y2="118.346" gradientUnits="userSpaceOnUse">
<stop stop-color="#4E9CFF"/>
<stop offset="0.19" stop-color="#4190F5"/>
<stop offset="0.71" stop-color="#2274DD"/>
<stop offset="1" stop-color="#176AD4"/>
</linearGradient>
<linearGradient id="paint1_linear_503_3188" x1="4961.32" y1="11064" x2="5004.1" y2="11064" gradientUnits="userSpaceOnUse">
<stop stop-color="#4E9CFF"/>
<stop offset="0.19" stop-color="#4190F5"/>
<stop offset="0.71" stop-color="#2274DD"/>
<stop offset="1" stop-color="#176AD4"/>
</linearGradient>
<linearGradient id="paint2_linear_503_3188" x1="115969" y1="21044.6" x2="144952" y2="21044.6" gradientUnits="userSpaceOnUse">
<stop stop-color="#4E9CFF"/>
<stop offset="0.19" stop-color="#4190F5"/>
<stop offset="0.71" stop-color="#2274DD"/>
<stop offset="1" stop-color="#176AD4"/>
</linearGradient>
<linearGradient id="paint3_linear_503_3188" x1="33.6742" y1="28.9901" x2="33.6742" y2="20.9819" gradientUnits="userSpaceOnUse">
<stop stop-color="#E5E5E5"/>
<stop offset="0.48" stop-color="#F4F4F4"/>
<stop offset="1" stop-color="white"/>
</linearGradient>
<linearGradient id="paint4_linear_503_3188" x1="115969" y1="23501.4" x2="144952" y2="23501.4" gradientUnits="userSpaceOnUse">
<stop stop-color="#4E9CFF"/>
<stop offset="0.19" stop-color="#4190F5"/>
<stop offset="0.71" stop-color="#2274DD"/>
<stop offset="1" stop-color="#176AD4"/>
</linearGradient>
<linearGradient id="paint5_linear_503_3188" x1="61084" y1="5336.57" x2="61084" y2="5205.47" gradientUnits="userSpaceOnUse">
<stop stop-color="#E5E5E5"/>
<stop offset="0.48" stop-color="#F4F4F4"/>
<stop offset="1" stop-color="white"/>
</linearGradient>
<linearGradient id="paint6_linear_503_3188" x1="115969" y1="25958.2" x2="144952" y2="25958.2" gradientUnits="userSpaceOnUse">
<stop stop-color="#4E9CFF"/>
<stop offset="0.19" stop-color="#4190F5"/>
<stop offset="0.71" stop-color="#2274DD"/>
<stop offset="1" stop-color="#176AD4"/>
</linearGradient>
<linearGradient id="paint7_linear_503_3188" x1="61084" y1="5888.07" x2="61084" y2="5756.97" gradientUnits="userSpaceOnUse">
<stop stop-color="#E5E5E5"/>
<stop offset="0.48" stop-color="#F4F4F4"/>
<stop offset="1" stop-color="white"/>
</linearGradient>
<linearGradient id="paint8_linear_503_3188" x1="115969" y1="28415.1" x2="144952" y2="28415.1" gradientUnits="userSpaceOnUse">
<stop stop-color="#4E9CFF"/>
<stop offset="0.19" stop-color="#4190F5"/>
<stop offset="0.71" stop-color="#2274DD"/>
<stop offset="1" stop-color="#176AD4"/>
</linearGradient>
<linearGradient id="paint9_linear_503_3188" x1="61084" y1="6439.56" x2="61084" y2="6308.47" gradientUnits="userSpaceOnUse">
<stop stop-color="#E5E5E5"/>
<stop offset="0.48" stop-color="#F4F4F4"/>
<stop offset="1" stop-color="white"/>
</linearGradient>
<linearGradient id="paint10_linear_503_3188" x1="31689.9" y1="18600.3" x2="32609.1" y2="19343.9" gradientUnits="userSpaceOnUse">
<stop stop-color="#4E9CFF"/>
<stop offset="0.19" stop-color="#4190F5"/>
<stop offset="0.71" stop-color="#2274DD"/>
<stop offset="1" stop-color="#176AD4"/>
</linearGradient>
<linearGradient id="paint11_linear_503_3188" x1="219.815" y1="92.4695" x2="259.999" y2="92.4695" gradientUnits="userSpaceOnUse">
<stop stop-color="#A50404"/>
<stop offset="1" stop-color="#E64D4E"/>
</linearGradient>
<radialGradient id="paint12_radial_503_3188" cx="0" cy="0" r="1" gradientUnits="userSpaceOnUse" gradientTransform="translate(206.081 108.85) rotate(180) scale(22.9763 12.9223)">
<stop offset="0.21" stop-color="#A50404"/>
<stop offset="1" stop-color="#E64D4E"/>
</radialGradient>
<linearGradient id="paint13_linear_503_3188" x1="209.238" y1="82.7031" x2="208.776" y2="120.283" gradientUnits="userSpaceOnUse">
<stop stop-color="#A50404"/>
<stop offset="0.82" stop-color="#E64D4E"/>
</linearGradient>
<linearGradient id="paint14_linear_503_3188" x1="-11850.5" y1="13576.7" x2="-12292.3" y2="13003.2" gradientUnits="userSpaceOnUse">
<stop stop-color="#A50404"/>
<stop offset="1" stop-color="#E64D4E"/>
</linearGradient>
<linearGradient id="paint15_linear_503_3188" x1="-11251" y1="13367.6" x2="-11092.3" y2="12852.4" gradientUnits="userSpaceOnUse">
<stop stop-color="#A50404"/>
<stop offset="1" stop-color="#E64D4E"/>
</linearGradient>
</defs>
</svg>
