<svg width="82" height="42" viewBox="0 0 82 42" fill="none" xmlns="http://www.w3.org/2000/svg">
<path d="M17.2618 30.0001C17.652 30.0001 18.0383 29.9226 18.3988 29.7719C18.7592 29.6212 19.0868 29.4002 19.3627 29.1216C19.6386 28.8431 19.8574 28.5124 20.0067 28.1484C20.1561 27.7844 20.2329 27.3943 20.2329 27.0003C20.2329 21.4307 22.424 16.0892 26.3242 12.1508C30.2243 8.2125 35.5143 5.99997 41.0299 5.99997C46.5456 5.99997 51.8356 8.2125 55.7356 12.1508C59.636 16.0892 61.827 21.4307 61.827 27.0003C61.8347 27.7908 62.1512 28.5461 62.7076 29.1023C63.2637 29.6585 64.015 29.9705 64.7981 29.9705C65.5808 29.9705 66.3321 29.6585 66.8882 29.1023C67.4447 28.5461 67.7612 27.7908 67.7689 27.0003C67.7689 23.4546 67.0772 19.9436 65.7336 16.6677C64.3896 13.3919 62.4202 10.4154 59.9373 7.9082C57.4541 5.40099 54.5065 3.41216 51.2625 2.05528C48.0182 0.698382 44.5414 0 41.0299 0C37.5184 0 34.0416 0.698382 30.7974 2.05528C27.5533 3.41216 24.6056 5.40099 22.1227 7.9082C19.6397 10.4154 17.6701 13.3919 16.3264 16.6677C14.9826 19.9436 14.291 23.4546 14.291 27.0003C14.291 27.7959 14.604 28.5589 15.1611 29.1215C15.7183 29.6841 16.4739 30.0001 17.2618 30.0001Z" fill="#3B82F6"/>
<path d="M79.0586 36H52.9039C54.8405 33.4075 55.8863 30.2477 55.8831 27.0002C55.8831 23.0219 54.3179 19.2066 51.5322 16.3935C48.7461 13.5804 44.9677 12 41.0279 12C37.0884 12 33.3099 13.5804 30.5239 16.3935C27.7381 19.2066 26.173 23.0219 26.173 27.0002C26.173 27.7959 26.486 28.559 27.0432 29.1216C27.6004 29.6843 28.3561 30.0004 29.1441 30.0004C29.9322 30.0004 30.688 29.6843 31.245 29.1216C31.8023 28.559 32.1152 27.7959 32.1152 27.0002C32.1152 25.2201 32.6378 23.4801 33.6172 22C34.5966 20.5198 35.9886 19.3662 37.6172 18.685C39.2459 18.0037 41.038 17.8255 42.7669 18.1727C44.4958 18.52 46.0841 19.3771 47.3304 20.6358C48.5771 21.8945 49.426 23.4981 49.77 25.244C50.1138 26.9898 49.9373 28.7995 49.2628 30.4439C48.5881 32.0885 47.4458 33.4944 45.98 34.4833C44.5142 35.4723 42.7909 36 41.0282 36H3.00078C2.60813 35.9961 2.2186 36.0707 1.85471 36.2199C1.49081 36.3687 1.15978 36.5892 0.880735 36.868C0.601695 37.1471 0.380179 37.479 0.229007 37.845C0.0778342 38.211 0 38.6036 0 39.0002C0 39.3964 0.0778342 39.7891 0.229007 40.1551C0.380179 40.521 0.601695 40.8529 0.880735 41.132C1.15978 41.4109 1.49081 41.6313 1.85471 41.7802C2.2186 41.9293 2.60813 42.0039 3.00078 42H79.0586C79.8413 41.9922 80.5893 41.6726 81.1401 41.1108C81.6909 40.5492 82 39.7906 82 39.0002C82 38.2095 81.6909 37.4508 81.1401 36.8893C80.5893 36.3274 79.8413 36.0078 79.0586 36Z" fill="#3B82F6"/>
</svg>
