<svg width="500" height="409" viewBox="0 0 500 409" fill="none" xmlns="http://www.w3.org/2000/svg">
<path d="M444.235 361.076C419.338 342.19 376.757 295.322 432.831 221.752C502.173 130.773 419.129 93.4473 339.53 97.3419C275.492 100.477 203.422 20.0921 131.529 34.4597C36.1046 53.5287 98.064 135.578 33.3631 179.783C-21.815 217.482 1.87463 332.353 73.6891 361.076H444.235Z" fill="#E8E8F9"/>
<path d="M454.966 316.802C458.553 314.516 460.797 310.623 461.167 306.392C462.001 296.838 461.973 274.638 443.776 274.026C432.737 273.655 425.331 293.228 431.688 305.945C437.15 316.872 447.085 321.824 454.966 316.802Z" fill="#E8E8F9"/>
<path d="M330.588 78.052C330.588 78.052 351.398 100.514 372.402 85.5642C389.382 73.4796 368.862 56.8259 353.202 54.6065C336.208 52.1998 316.875 61.9096 330.588 78.052Z" fill="#E8E8F9"/>
<path d="M39.1144 153.129C39.1144 153.129 60.5242 132.56 45.6106 112.516C33.5536 96.3108 17.777 116.49 15.9216 131.689C13.9082 148.183 23.7041 166.71 39.1144 153.129Z" fill="#E8E8F9"/>
<path d="M476.672 363.863C476.672 372.06 374.75 378.707 249.022 378.707C123.296 378.707 21.3752 372.06 21.3752 363.863C21.3752 355.664 123.296 349.018 249.022 349.018C374.75 349.018 476.672 355.664 476.672 363.863Z" fill="#E8E8F9"/>
<path d="M468.865 191.361C458.334 207.993 473.759 205.729 466.099 218.225C459.113 229.614 443.642 223.543 449.688 246.158C451.011 251.104 448.209 255.627 443.533 258.674C435.841 263.685 426.974 262.648 420.618 258.051C420.101 257.681 419.601 257.286 419.121 256.865C414.1 252.498 411.096 245.721 412.355 238.051C413.375 231.829 416.197 225.297 422.938 221.429C438.753 212.356 424.24 191.999 438.386 187.777C455.445 182.685 454.633 176.198 465 164.875C475.987 152.87 483.139 168.821 468.865 191.361Z" fill="#542BDA"/>
<path d="M460.895 185.152C460.603 185.628 436.407 225.182 420.419 257.884C419.902 257.514 419.402 257.119 418.922 256.698C434.967 223.967 459.012 184.655 459.306 184.179C459.575 183.741 460.148 183.603 460.588 183.872C461.026 184.14 461.164 184.714 460.895 185.152Z" fill="#3700B3"/>
<path d="M482.165 235.693C463.691 253.01 483.624 255.152 470.057 268.243C457.691 280.174 440.389 267.643 440.621 297.737C440.673 304.321 435.726 309.048 428.925 311.337C417.732 315.1 407.028 310.96 400.599 303.194C400.077 302.569 399.581 301.914 399.12 301.237C394.277 294.185 392.724 284.785 396.765 275.642C400.042 268.224 405.661 261.001 415.299 258.355C437.913 252.144 426.411 222.139 445.382 221.433C468.259 220.578 469.341 212.244 485.895 201.481C503.445 190.071 507.203 212.226 482.165 235.693Z" fill="#6B5EFF"/>
<path d="M474.668 225.859C474.152 226.358 431.276 267.813 400.826 303.379C400.304 302.754 399.808 302.099 399.346 301.423C429.877 265.838 472.485 224.636 473.004 224.137C473.479 223.677 474.238 223.691 474.698 224.166C475.158 224.642 475.145 225.399 474.668 225.859Z" fill="#542BDA"/>
<path d="M34.6619 35.6096C42.1548 53.8104 27.3531 48.9162 32.7352 62.5468C37.6402 74.9697 53.9311 71.6609 44.0596 92.8914C41.9004 97.536 43.8765 102.474 47.9536 106.281C54.6625 112.545 63.5767 113.055 70.6321 109.626C71.2046 109.351 71.766 109.047 72.3121 108.716C78.0144 105.281 82.1452 99.1258 82.234 91.3541C82.3075 85.0485 80.6582 78.1286 74.6895 73.1555C60.6839 61.4869 78.5045 43.943 65.3027 37.3429C49.3825 29.3806 51.3048 23.133 43.0562 10.19C34.3131 -3.5315 24.5064 10.9444 34.6619 35.6096Z" fill="#542BDA"/>
<path d="M43.1316 31.0815C43.3366 31.6016 60.3173 74.737 70.4026 109.708C70.975 109.433 71.5354 109.128 72.0815 108.798C61.9457 73.7877 45.0725 30.9184 44.8664 30.3972C44.6767 29.9187 44.1349 29.6855 43.6568 29.8738C43.1776 30.0621 42.943 30.603 43.1316 31.0815Z" fill="#3700B3"/>
<path d="M13.4879 83.1795C29.2897 102.958 9.25615 102.23 20.8054 117.124C31.3348 130.7 50.2543 120.769 45.7111 150.52C44.7176 157.028 48.934 162.415 55.3381 165.652C65.8752 170.977 77.0637 168.408 84.5391 161.641C85.1466 161.096 85.73 160.519 86.2849 159.915C92.088 153.628 94.972 144.546 92.2832 134.92C90.1032 127.111 85.5765 119.158 76.4178 115.162C54.9279 105.785 70.6102 77.7312 51.9375 74.3216C29.4169 70.2069 29.5419 61.8045 14.6996 48.7859C-1.03314 34.9856 -7.92848 56.3759 13.4879 83.1795Z" fill="#6B5EFF"/>
<path d="M22.7632 74.2505C23.2029 74.8187 59.6963 121.974 84.7347 161.525C85.3411 160.98 85.9256 160.403 86.4794 159.799C61.3642 120.217 25.1 73.3526 24.6581 72.7844C24.2524 72.261 23.5001 72.1668 22.9759 72.5709C22.4529 72.976 22.3575 73.7282 22.7632 74.2505Z" fill="#542BDA"/>
<path d="M230.418 89.9197C222.626 84.5918 203.112 97.7341 192.907 113.689L201.959 88.3682C205.236 85.5313 210.972 81.5501 219.935 78.3782C233.875 73.4456 247.847 65.7176 240.04 60.3799C232.725 55.3783 215.078 66.656 204.502 81.2578L216.127 48.7409C218.289 47.0799 221.581 45.062 226.285 43.3977C235.069 40.2882 243.874 35.4191 238.956 32.0544C234.686 29.1353 224.832 35.0139 218.104 43.2083L221.873 32.6686C223.596 29.6072 226.047 25.2319 229.91 21.241C238.859 11.9955 245.626 1.59485 238.723 0.0882463C231.814 -1.42055 220.508 16.6971 218.728 33.0661L216.789 38.4892C218.295 26.5831 214.008 12.1685 208.03 11.6582C202.09 11.1513 205.815 20.4877 210.643 28.4477C214.318 34.5081 215.332 39.317 215.605 41.8046L206.446 67.4202C208.777 48.5592 201.988 25.8133 192.527 25.0064C183.101 24.2016 189.013 39.0159 196.673 51.6468C202.461 61.1934 204.092 68.7856 204.538 72.759L193.556 103.476C195.503 84.8382 188.826 62.2172 179.514 62.1438C172.334 62.088 174.532 72.2094 183.108 86.4981C188.935 96.2089 190.799 104.929 191.396 109.52L186.223 123.989C187.089 124.601 187.991 124.921 188.886 124.938L190.944 119.18C193.851 116.373 199.907 111.6 210.313 107.918C224.253 102.984 238.224 95.2574 230.418 89.9197Z" fill="#6B5EFF"/>
<path d="M98.262 362.152H102.58L102.429 362.02C100.862 358.297 98.6009 350.931 98.9353 339.913C99.3817 325.153 97.2323 309.351 89.4202 314.682C81.6235 320.002 86.818 342.924 98.0142 358.204L77.6593 340.602C76.1987 336.525 74.5615 329.745 74.8488 320.253C75.2951 305.493 73.1458 289.69 65.3348 295.02C58.014 300.017 62.1459 320.525 71.9439 335.659L45.8035 313.057C45.0369 310.441 44.3461 306.648 44.4974 301.668C44.7792 292.365 43.4239 282.407 38.5013 285.765C34.229 288.681 36.1458 299.982 41.3557 309.211L32.8835 301.886C30.6497 299.171 27.4542 295.305 25.1295 290.265C19.7419 278.586 12.4858 268.518 8.57758 274.397C4.66605 280.28 17.4808 297.367 32.1147 304.956L36.4748 308.724C25.907 303.009 10.898 301.774 8.25409 307.153C5.62776 312.498 15.6944 312.413 24.874 310.806C31.8625 309.582 36.7182 310.381 39.1395 311.029L59.7312 328.835C42.9699 319.831 19.2781 317.906 15.0957 326.416C10.9287 334.897 26.8994 334.764 41.4675 332.214C52.4751 330.286 60.1534 331.521 64.0222 332.545L88.7151 353.897C72.024 345.331 48.489 343.346 45.0457 351.987C42.3909 358.647 52.6363 360.27 69.0818 357.468C80.2582 355.563 89.0726 356.99 93.5752 358.099L98.262 362.152Z" fill="#6B5EFF"/>
<path d="M436.227 89.1196V362.174C436.227 364.705 434.17 366.756 431.636 366.756H57.4447C56.2648 366.756 55.1945 366.313 54.3797 365.586C53.4454 364.747 52.8555 363.53 52.8555 362.174V89.1196C52.8555 86.5881 54.9094 84.5352 57.4447 84.5352H431.636C433.147 84.5352 434.49 85.2676 435.328 86.3932C435.891 87.1553 436.227 88.098 436.227 89.1196Z" fill="#2E3062"/>
<path d="M436.66 88.7263V361.78C436.66 364.312 434.603 366.363 432.068 366.363H57.8774C56.6975 366.363 55.6273 365.92 54.8125 365.193L435.761 86C436.324 86.7621 436.66 87.7048 436.66 88.7263Z" fill="#001030"/>
<path d="M426.168 100.334V350.688C426.168 353.473 423.903 355.734 421.111 355.734H69.6538C66.8619 355.734 64.5996 353.473 64.5996 350.688V100.334C64.5996 97.5462 66.8619 95.2852 69.6538 95.2852H421.111C423.903 95.2852 426.168 97.5462 426.168 100.334Z" fill="white"/>
<path d="M426.168 100.334V117.899H64.5996V100.334C64.5996 97.5462 66.8619 95.2852 69.6538 95.2852H421.111C423.903 95.2852 426.168 97.5462 426.168 100.334Z" fill="#E8E8F9"/>
<path d="M125.285 107.084C125.285 108.742 126.632 110.085 128.291 110.085H391.845C393.505 110.085 394.852 108.742 394.852 107.084C394.852 105.427 393.505 104.082 391.845 104.082H128.291C126.632 104.082 125.285 105.427 125.285 107.084Z" fill="white"/>
<path d="M83.8244 104.912V109.36C83.8244 109.998 83.1325 110.397 82.5798 110.078L80.6509 108.966L78.722 107.854C78.1682 107.535 78.1682 106.738 78.722 106.419L82.5798 104.194C83.1325 103.875 83.8244 104.274 83.8244 104.912Z" fill="#2E3062"/>
<path d="M93.9648 104.912V109.36C93.9648 109.998 94.6557 110.397 95.2095 110.078L97.1384 108.966L99.0673 107.854C99.621 107.535 99.621 106.738 99.0673 106.419L95.2095 104.194C94.6557 103.875 93.9648 104.274 93.9648 104.912Z" fill="#2E3062"/>
<path d="M136.711 190.322C133.377 190.322 130.12 189.958 126.939 189.23C123.797 188.463 121.21 187.448 119.179 186.183L123.548 176.296C125.464 177.408 127.61 178.308 129.986 178.998C132.362 179.649 134.642 179.975 136.826 179.975C138.704 179.975 140.045 179.803 140.85 179.458C141.655 179.075 142.057 178.519 142.057 177.791C142.057 176.948 141.521 176.315 140.448 175.894C139.413 175.472 137.688 175.012 135.274 174.514C132.17 173.863 129.583 173.173 127.514 172.445C125.445 171.678 123.643 170.452 122.111 168.766C120.578 167.042 119.811 164.723 119.811 161.811C119.811 159.281 120.52 156.982 121.938 154.913C123.356 152.843 125.464 151.215 128.261 150.027C131.097 148.839 134.527 148.245 138.551 148.245C141.31 148.245 144.011 148.551 146.656 149.164C149.338 149.739 151.695 150.601 153.726 151.751L149.645 161.581C145.698 159.588 141.961 158.592 138.436 158.592C134.948 158.592 133.205 159.435 133.205 161.121C133.205 161.926 133.722 162.539 134.757 162.96C135.791 163.343 137.497 163.765 139.873 164.225C142.938 164.8 145.525 165.47 147.633 166.237C149.741 166.965 151.561 168.172 153.094 169.858C154.665 171.544 155.451 173.844 155.451 176.756C155.451 179.285 154.742 181.585 153.324 183.654C151.906 185.685 149.779 187.314 146.943 188.54C144.146 189.728 140.735 190.322 136.711 190.322ZM192.942 179.17V189.402H159.487V149.164H192.195V159.396H172.823V164.11H189.838V173.882H172.823V179.17H192.942ZM225.584 182.389H210.294L207.592 189.402H193.796L211.386 149.164H224.722L242.311 189.402H228.286L225.584 182.389ZM221.848 172.617L217.939 162.5L214.03 172.617H221.848ZM261.721 179.285H258.042V189.402H244.476V149.164H263.848C267.565 149.164 270.804 149.778 273.563 151.004C276.322 152.23 278.449 153.993 279.943 156.292C281.438 158.592 282.185 161.274 282.185 164.34C282.185 167.214 281.534 169.724 280.231 171.87C278.928 174.016 277.05 175.721 274.597 176.986L283.047 189.402H268.562L261.721 179.285ZM268.504 164.34C268.504 162.845 268.044 161.696 267.125 160.891C266.205 160.048 264.825 159.626 262.986 159.626H258.042V169.053H262.986C264.825 169.053 266.205 168.651 267.125 167.846C268.044 167.003 268.504 165.834 268.504 164.34ZM308.117 190.322C303.863 190.322 300.031 189.441 296.62 187.678C293.209 185.877 290.527 183.386 288.573 180.205C286.656 176.986 285.698 173.345 285.698 169.283C285.698 165.221 286.656 161.6 288.573 158.419C290.527 155.2 293.209 152.709 296.62 150.946C300.031 149.145 303.863 148.245 308.117 148.245C312.025 148.245 315.513 148.934 318.579 150.314C321.644 151.694 324.173 153.686 326.166 156.292L317.601 163.937C315.11 160.795 312.179 159.224 308.806 159.224C305.971 159.224 303.69 160.144 301.966 161.983C300.242 163.784 299.379 166.218 299.379 169.283C299.379 172.349 300.242 174.802 301.966 176.641C303.69 178.442 305.971 179.343 308.806 179.343C312.179 179.343 315.11 177.772 317.601 174.629L326.166 182.274C324.173 184.88 321.644 186.873 318.579 188.253C315.513 189.632 312.025 190.322 308.117 190.322ZM369.746 149.164V189.402H356.18V174.572H343.649V189.402H330.083V149.164H343.649V163.42H356.18V149.164H369.746Z" fill="#524E84"/>
<path d="M370.152 230.885C370.152 238.036 364.346 243.832 357.185 243.832H132.378C125.217 243.832 119.412 238.036 119.412 230.885C119.412 223.734 125.217 217.938 132.378 217.938H357.185C364.346 217.938 370.152 223.734 370.152 230.885Z" fill="#E8E8F9"/>
<path d="M356.674 217.938H321.041V243.832H356.674C363.834 243.832 369.641 238.036 369.641 230.885C369.641 223.734 363.834 217.938 356.674 217.938Z" fill="#FFAA01"/>
<path d="M354.392 225.916C352.733 224.388 350.139 224.492 348.609 226.148C347.078 227.804 347.182 230.395 348.841 231.923C350.498 233.452 353.093 233.348 354.623 231.691C356.154 230.035 356.05 227.445 354.392 225.916ZM347.474 233.401C345 231.12 344.844 227.255 347.128 224.784C349.411 222.313 353.283 222.157 355.758 224.438C358.233 226.719 358.389 230.585 356.105 233.056C353.821 235.526 349.949 235.682 347.474 233.401Z" fill="white"/>
<path d="M340.943 240.666C340.534 240.289 340.509 239.653 340.886 239.245L347.634 231.945C348.011 231.536 348.648 231.511 349.057 231.888C349.466 232.264 349.491 232.901 349.114 233.309L342.367 240.609C341.989 241.017 341.352 241.042 340.943 240.666Z" fill="white"/>
<path d="M119.412 274.225C119.412 276.436 121.206 278.227 123.42 278.227H365.535C367.749 278.227 369.544 276.436 369.544 274.225C369.544 272.014 367.749 270.223 365.535 270.223H123.42C121.206 270.223 119.412 272.014 119.412 274.225Z" fill="#E8E8F9"/>
<path d="M119.412 293.771C119.412 295.982 121.206 297.773 123.42 297.773H365.535C367.749 297.773 369.544 295.982 369.544 293.771C369.544 291.561 367.749 289.77 365.535 289.77H123.42C121.206 289.77 119.412 291.561 119.412 293.771Z" fill="#E8E8F9"/>
<path d="M119.412 313.318C119.412 315.529 121.206 317.32 123.42 317.32H365.535C367.749 317.32 369.544 315.529 369.544 313.318C369.544 311.108 367.749 309.316 365.535 309.316H123.42C121.206 309.316 119.412 311.108 119.412 313.318Z" fill="#E8E8F9"/>
<path d="M99.5514 267.6C97.1795 269.19 93.9556 268.558 92.3622 266.191C90.77 263.824 91.4027 260.603 93.7735 259.012C96.1454 257.423 99.3694 258.054 100.963 260.422C102.555 262.789 101.922 266.009 99.5514 267.6ZM113.479 269.817L114.567 264.28L109.371 263.262C109.368 261.899 109.136 260.531 108.684 259.208L112.965 256.336L109.813 251.653L105.716 254.401C104.496 253.164 103.062 252.213 101.509 251.576L102.53 246.387L96.9843 245.301L95.9327 250.648C94.7944 250.711 93.6628 250.928 92.5585 251.304L89.6821 247.029L84.9909 250.175L87.7445 254.266C86.5053 255.486 85.5524 256.917 84.9142 258.467L80.3721 257.576L79.2832 263.113L83.9854 264.035C84.0654 265.483 84.3911 266.929 84.9833 268.307L80.8853 271.057L84.0369 275.741L88.3191 272.869C89.5473 273.937 90.9509 274.74 92.4499 275.265L91.4224 280.486L96.969 281.572L98.082 275.913C99.3014 275.779 100.51 275.467 101.672 274.968L104.425 279.059L109.116 275.913L106.24 271.638C107.005 270.761 107.634 269.795 108.123 268.766L113.479 269.817Z" fill="#E8E8F9"/>
<path d="M396.719 149.007C395.423 149.876 393.662 149.531 392.791 148.237C391.921 146.943 392.266 145.183 393.562 144.314C394.858 143.445 396.621 143.791 397.491 145.084C398.361 146.378 398.016 148.138 396.719 149.007ZM404.331 150.219L404.926 147.192L402.087 146.636C402.085 145.891 401.957 145.144 401.711 144.421L404.051 142.851L402.327 140.292L400.088 141.795C399.422 141.118 398.638 140.598 397.791 140.25L398.348 137.414L395.317 136.82L394.742 139.743C394.12 139.778 393.501 139.896 392.899 140.102L391.326 137.764L388.762 139.484L390.267 141.721C389.59 142.386 389.069 143.169 388.721 144.016L386.238 143.529L385.643 146.555L388.213 147.059C388.257 147.851 388.434 148.641 388.758 149.394L386.519 150.897L388.241 153.455L390.581 151.886C391.253 152.471 392.02 152.909 392.838 153.196L392.277 156.049L395.309 156.643L395.918 153.55C396.583 153.477 397.243 153.306 397.879 153.033L399.383 155.27L401.947 153.55L400.375 151.214C400.793 150.735 401.136 150.207 401.404 149.645L404.331 150.219Z" fill="#E8E8F9"/>
<path d="M92.3169 180.28C91.0207 181.15 89.2585 180.805 88.3878 179.51C87.5182 178.216 87.8636 176.457 89.1598 175.587C90.4549 174.718 92.2171 175.064 93.0878 176.357C93.9585 177.651 93.613 179.411 92.3169 180.28ZM99.9283 181.492L100.523 178.466L97.6836 177.91C97.6814 177.164 97.5542 176.417 97.3074 175.695L99.6476 174.125L97.9248 171.566L95.6856 173.068C95.0189 172.391 94.2359 171.871 93.3871 171.523L93.9442 168.687L90.9132 168.094L90.3397 171.016C89.7169 171.051 89.0984 171.169 88.4953 171.375L86.9238 169.038L84.36 170.758L85.8645 172.995C85.188 173.659 84.666 174.442 84.3173 175.29L81.8346 174.802L81.2402 177.829L83.8095 178.332C83.8545 179.124 84.0311 179.913 84.3556 180.668L82.1153 182.17L83.8381 184.729L86.1782 183.16C86.8504 183.745 87.6169 184.182 88.436 184.469L87.8746 187.323L90.9056 187.916L91.5142 184.823C92.1798 184.751 92.841 184.58 93.476 184.306L94.9805 186.543L97.5443 184.823L95.9718 182.488C96.3896 182.008 96.7339 181.48 97.0015 180.919L99.9283 181.492Z" fill="#E8E8F9"/>
<path d="M116.475 396.691C116.475 400.79 91.5152 404.113 60.7274 404.113C29.9374 404.113 4.98013 400.79 4.98013 396.691C4.98013 392.593 29.9374 389.269 60.7274 389.269C91.5152 389.269 116.475 392.593 116.475 396.691Z" fill="#E8E8F9"/>
<path d="M76.4779 214.158C81.6395 232.905 98.6443 238.139 98.6443 238.139C105.387 236.712 109.66 234.689 113.902 232.356C112.646 229.351 112.101 226.298 111.403 222.332C105.14 224.072 99.7321 225.002 99.7321 225.002C86.5117 218.883 78.4934 189.598 78.4934 189.598C70.6342 197.045 76.4779 214.158 76.4779 214.158Z" fill="#542BDA"/>
<path d="M32.3008 364.531L26.7071 372.002C26.7071 372.002 27.7292 375.342 31.8714 377.916L38.5598 369.32L32.3008 364.531Z" fill="#FBA691"/>
<path d="M30.9836 375.712C30.9836 375.712 33.6001 375.148 34.496 376.053C35.3908 376.956 37.6377 389.245 39.7399 391.933C41.8431 394.623 39.7267 396.051 38.4316 396.596C37.1377 397.141 18.5977 378.647 18.5977 378.647C18.5977 378.647 23.1803 372.322 25.391 371.095C27.6017 369.868 28.6369 374.411 30.9836 375.712Z" fill="#FFAA01"/>
<path d="M30.6492 382.694C30.5318 382.649 30.4331 382.557 30.3805 382.431C30.2796 382.184 30.3936 381.898 30.6349 381.792C30.716 381.756 32.6307 380.92 34.1615 381.203C36.2001 381.576 36.7056 383.324 36.7264 383.399C36.7977 383.655 36.6508 383.926 36.3986 384.002C36.1474 384.079 35.8843 383.932 35.813 383.674C35.7987 383.627 35.4336 382.429 33.9839 382.16C32.736 381.93 31.0187 382.677 31.0012 382.684C30.8838 382.736 30.7588 382.736 30.6492 382.694Z" fill="white"/>
<path d="M30.6492 380.741C30.5329 380.697 30.4331 380.605 30.3805 380.478C30.2796 380.232 30.3936 379.945 30.6349 379.839C30.716 379.804 32.6318 378.967 34.1626 379.25C36.2012 379.623 36.7056 381.37 36.7264 381.446C36.7977 381.702 36.6519 381.973 36.3997 382.049C36.1474 382.126 35.8843 381.979 35.813 381.721C35.7998 381.674 35.4336 380.475 33.9839 380.208C32.7305 379.977 31.0187 380.723 31.0023 380.731C30.8849 380.782 30.7588 380.782 30.6492 380.741Z" fill="white"/>
<path d="M31.6267 385.139C31.5105 385.094 31.4107 385.004 31.3592 384.877C31.2583 384.629 31.3712 384.343 31.6125 384.237C31.6936 384.201 33.6094 383.366 35.1402 383.648C37.1799 384.021 37.6843 385.769 37.704 385.843C37.7753 386.101 37.6295 386.371 37.3772 386.447C37.1261 386.524 36.8629 386.377 36.7917 386.119C36.7774 386.072 36.4112 384.873 34.9615 384.605C33.7081 384.374 31.9974 385.121 31.9798 385.129C31.8625 385.181 31.7375 385.181 31.6267 385.139Z" fill="white"/>
<path d="M66.5586 377.727L67.4062 387.015C67.4062 387.015 70.4026 388.814 75.206 387.961L74.42 377.104L66.5586 377.727Z" fill="#FBA691"/>
<path d="M73.4944 386.264C73.4944 386.264 75.1305 384.003 76.4574 384.08C77.7843 384.157 88.1218 392.125 91.6342 392.745C95.1466 393.364 94.5029 395.949 93.88 397.274C93.2571 398.6 66.0716 397.839 66.0716 397.839C66.0716 397.839 65.0704 389.076 65.9258 386.583C66.7822 384.09 70.7639 386.891 73.4944 386.264Z" fill="#FFAA01"/>
<path d="M79.9211 392.306C79.8027 392.347 79.6678 392.339 79.5472 392.276C79.3114 392.15 79.216 391.857 79.3334 391.621C79.3729 391.542 80.3137 389.678 81.6735 388.921C83.4818 387.91 84.9874 388.934 85.051 388.978C85.2703 389.131 85.3306 389.432 85.1848 389.651C85.04 389.87 84.7439 389.925 84.5246 389.772C84.483 389.744 83.4357 389.054 82.1472 389.772C81.0408 390.389 80.1953 392.058 80.1865 392.075C80.1295 392.19 80.033 392.269 79.9211 392.306Z" fill="white"/>
<path d="M77.9641 390.843C77.8457 390.882 77.7108 390.875 77.5902 390.811C77.3544 390.685 77.259 390.393 77.3763 390.156C77.4158 390.078 78.3567 388.214 79.7165 387.456C81.5258 386.445 83.0304 387.47 83.094 387.513C83.3133 387.667 83.3736 387.968 83.2277 388.187C83.0819 388.406 82.7869 388.46 82.5665 388.307C82.5259 388.28 81.4776 387.59 80.1902 388.307C79.0782 388.928 78.2383 390.593 78.2295 390.61C78.1725 390.726 78.076 390.805 77.9641 390.843Z" fill="white"/>
<path d="M81.8782 393.288C81.7597 393.329 81.626 393.321 81.5042 393.257C81.2685 393.131 81.1731 392.838 81.2904 392.602C81.3299 392.523 82.2708 390.661 83.6305 389.902C85.4399 388.89 86.9444 389.915 87.008 389.959C87.2273 390.112 87.2876 390.413 87.1418 390.632C86.9971 390.851 86.701 390.906 86.4817 390.752C86.44 390.725 85.3916 390.035 84.1043 390.752C82.9923 391.373 82.1523 393.039 82.1436 393.055C82.0865 393.171 81.99 393.251 81.8782 393.288Z" fill="white"/>
<path d="M60.7543 276.54L55.1047 323.227C55.1047 323.227 50.0363 330.093 45.2047 338.881C41.1495 346.255 30.3438 365.391 30.3438 365.391L36.8794 370.366L72.6742 333.328L82.2047 276.086L60.7543 276.54Z" fill="#001030"/>
<path d="M38.3218 370.453C37.7339 371.925 36.6372 372.927 35.3557 373.768L27.7665 367.37C28.4028 366.025 29.2743 364.864 30.3524 363.863L38.3218 370.453Z" fill="#2E3062"/>
<path d="M32.3008 278.519C32.3008 278.519 42.3817 303.264 55.4816 322.561C55.4816 322.561 57.4379 341.341 60.7847 351.337C62.2497 355.715 65.0866 376.454 65.0866 376.454L75.0249 376.004L72.4611 318.339L61.9481 276.574L32.3008 278.519Z" fill="#2E3062"/>
<path d="M75.324 375.971C75.9546 377.695 75.781 379.406 75.3244 381.12L63.8219 381.441C63.3326 379.789 63.1877 378.115 63.3472 376.42L75.324 375.971Z" fill="#524E84"/>
<path d="M77.9614 189.291C79.4604 191.158 82.4651 210.177 82.9366 229.485C82.9476 229.932 82.9585 230.375 82.9695 230.819C83.0189 232.862 83.0616 234.915 83.1033 236.968C83.145 238.995 83.1811 241.017 83.2151 243.024C83.2689 246.309 83.3171 249.543 83.3555 252.658C83.361 253.012 83.3632 253.363 83.3687 253.714C83.4038 256.752 83.4334 259.663 83.4553 262.382C83.4575 262.74 83.4608 263.09 83.463 263.44C83.4948 267.523 83.5134 271.136 83.5156 274.037V274.041C83.5189 274.448 83.5189 274.832 83.5189 275.211C83.5189 277.24 83.5134 278.85 83.4992 279.936C78.6851 281.23 73.8722 282.169 69.0615 282.743C68.9354 282.757 68.806 282.774 68.6777 282.789C68.4616 282.815 68.2511 282.84 68.0362 282.864C67.9835 282.869 67.932 282.873 67.8761 282.879C67.0416 282.971 66.2104 283.051 65.3737 283.119C61.2362 283.458 57.0999 283.534 52.9625 283.342C52.5984 283.325 52.2387 283.306 51.8747 283.283C51.5523 283.267 51.2244 283.247 50.8965 283.224C50.7507 283.216 50.6026 283.206 50.4546 283.193C50.1782 283.175 49.9063 283.153 49.6288 283.134C43.5505 282.64 37.471 281.579 31.3937 279.936C31.3619 277.546 31.3334 272.675 31.3235 266.394C31.3235 266.051 31.3213 265.702 31.3235 265.347C31.3158 258.42 31.3432 249.916 31.4255 241.16C31.4321 240.467 31.4397 239.775 31.4496 239.08C31.4573 238.277 31.4639 237.469 31.4737 236.66C31.4759 236.524 31.4759 236.387 31.4792 236.251C31.4836 236.061 31.4858 235.872 31.4891 235.681C31.4913 235.3 31.4957 234.917 31.5033 234.541C31.511 233.984 31.5176 233.432 31.5275 232.882C31.5318 232.462 31.5395 232.042 31.5439 231.624C31.5571 230.789 31.5713 229.955 31.5834 229.126C31.8773 211.743 32.4639 195.768 33.5836 191.703C33.6877 191.327 33.7974 191.054 33.9071 190.89C34.0255 190.709 34.1735 190.527 34.3391 190.339C34.5475 190.101 34.7898 189.856 35.0618 189.609C36.9271 187.895 40.1609 185.905 43.4408 184.017C43.8213 183.795 44.2073 183.578 44.5867 183.36C44.6449 183.328 53.4987 180.346 53.5546 180.312L62.8164 180.96C62.8164 180.96 75.7594 186.548 77.9614 189.291Z" fill="#6B5EFF"/>
<path d="M41.42 214.516C41.42 214.056 40.8333 213.854 40.5548 214.22C36.833 219.117 34.5883 224.453 33.2603 228.672C32.9204 229.755 32.6265 230.805 32.3721 231.803C32.3666 232.223 32.3589 232.643 32.3545 233.061C32.3446 233.612 32.3381 234.164 32.3304 234.72C32.3227 235.098 32.3183 235.48 32.3161 235.861C32.3128 236.053 32.3107 236.242 32.3063 236.432C32.3041 236.567 32.3041 236.705 32.3008 236.841C32.6506 234.727 33.2307 231.968 34.1847 228.934C35.4864 224.805 37.6872 219.585 41.3224 214.805C41.3849 214.72 41.42 214.62 41.42 214.516Z" fill="#542BDA"/>
<path d="M42.5712 264.766H42.5734C52.5743 264.722 61.1113 260.178 66.512 256.373C72.3524 252.258 75.8911 248.09 75.9262 248.047C76.0972 247.845 76.072 247.542 75.868 247.371C75.6641 247.2 75.3614 247.226 75.1903 247.429C75.1553 247.47 71.6802 251.56 65.9351 255.603C60.6518 259.321 52.31 263.762 42.5691 263.804C42.3026 263.805 42.0888 264.021 42.0898 264.287C42.0909 264.552 42.3059 264.766 42.5712 264.766Z" fill="#542BDA"/>
<path d="M53.4989 268.468C62.1784 268.468 70.8326 263.53 71.2252 263.302C71.4555 263.169 71.5344 262.876 71.4007 262.646C71.268 262.417 70.9741 262.338 70.7438 262.47C70.6418 262.529 60.4578 268.336 51.4296 267.402C51.1609 267.373 50.9285 267.569 50.901 267.832C50.8736 268.096 51.0655 268.332 51.3298 268.358C52.0503 268.434 52.7751 268.468 53.4989 268.468Z" fill="#542BDA"/>
<path d="M50.6415 196.21C59.0052 193.895 66.0233 186.829 66.3425 186.505C66.5289 186.315 66.5256 186.011 66.3359 185.825C66.1462 185.639 65.8413 185.643 65.6549 185.831C65.5726 185.914 57.3131 194.227 48.3628 195.736C48.0963 195.779 47.9231 196.028 47.968 196.29C48.0119 196.552 48.2608 196.728 48.5229 196.684C49.2368 196.564 49.9441 196.403 50.6415 196.21Z" fill="#542BDA"/>
<path d="M44.2829 157.249C44.2823 165.691 49.4895 171.512 57.9452 171.511C66.4009 171.511 72.2945 165.255 72.294 156.812C72.2935 148.369 67.2867 141.971 58.831 141.971C48.6896 141.971 44.2824 148.806 44.2829 157.249Z" fill="#2E3062"/>
<path d="M43.9385 159.391C43.9385 159.391 40.9832 154.928 42.5458 151.489C44.1644 147.929 43.343 148.709 43.7455 146.035C44.1479 143.361 46.0998 142.26 48.4356 141.874C50.7702 141.489 49.1703 138.804 52.4085 137.841C55.6456 136.876 58.2402 140.252 60.3215 138.74C62.4039 137.226 67.5173 136.483 68.9538 138.74C70.3904 140.995 71.6679 140.981 73.1987 140.908C75.0421 140.82 77.5127 143.722 75.8448 146.394C74.178 149.067 71.3696 148.006 71.7578 149.845C72.146 151.686 74.5201 154.928 71.3367 159.048C70.3728 160.296 43.9385 159.391 43.9385 159.391Z" fill="#2E3062"/>
<path d="M45.772 160.866C45.772 160.866 43.4231 157.739 41.6762 160.325C39.9282 162.911 42.3988 170.549 46.6755 168.686L45.772 160.866Z" fill="#FB876B"/>
<path d="M45.8054 166.52C45.6475 166.52 45.5028 166.416 45.4578 166.256C44.7944 163.898 42.3479 162.942 42.3226 162.933C42.1362 162.862 42.043 162.654 42.1132 162.468C42.1845 162.282 42.3928 162.187 42.5793 162.258C42.6933 162.3 45.3898 163.346 46.153 166.061C46.2079 166.253 46.096 166.452 45.903 166.507C45.8712 166.516 45.8372 166.52 45.8054 166.52Z" fill="#D45C48"/>
<path d="M43.4275 165.378C43.3606 165.378 43.2927 165.36 43.2324 165.321C43.0636 165.213 43.0164 164.99 43.1239 164.822C43.1414 164.794 43.5744 164.135 44.4798 163.731C44.6607 163.649 44.8756 163.731 44.9578 163.913C45.0389 164.094 44.9578 164.308 44.7747 164.389C44.0754 164.702 43.7344 165.208 43.7312 165.213C43.6621 165.32 43.5459 165.378 43.4275 165.378Z" fill="#D45C48"/>
<path d="M70.3977 160.866C70.3977 160.866 72.7477 157.739 74.4946 160.325C76.2414 162.911 73.7719 170.549 69.4941 168.686L70.3977 160.866Z" fill="#FB876B"/>
<path d="M69.8557 166.52C70.0136 166.52 70.1584 166.416 70.2033 166.256C70.8667 163.898 73.3132 162.942 73.3385 162.933C73.5238 162.862 73.6181 162.654 73.5479 162.468C73.4766 162.282 73.2683 162.187 73.0819 162.258C72.9678 162.3 70.2713 163.346 69.5081 166.061C69.4532 166.253 69.5651 166.452 69.7581 166.507C69.7899 166.516 69.8239 166.52 69.8557 166.52Z" fill="#D45C48"/>
<path d="M72.0363 165.378C72.1032 165.378 72.1711 165.36 72.2314 165.321C72.4003 165.213 72.4474 164.99 72.34 164.822C72.3213 164.794 71.8894 164.135 70.984 163.731C70.8031 163.649 70.5883 163.731 70.506 163.913C70.4249 164.094 70.506 164.308 70.6891 164.389C71.3885 164.702 71.7294 165.208 71.7327 165.213C71.8017 165.32 71.9179 165.378 72.0363 165.378Z" fill="#D45C48"/>
<path d="M63.9815 175.426V183.462C63.9815 183.462 62.7248 185.336 60.2037 185.634C56.676 186.052 52.8555 182.329 52.8555 182.329V175.96L63.9815 175.426Z" fill="#FBA691"/>
<path d="M63.9815 175.426V178.796C61.9232 181.078 58.266 181.647 52.8555 180.85V175.96L63.9815 175.426Z" fill="#FB876B"/>
<path d="M44.1981 160.714C44.2288 161.155 44.2661 161.6 44.3099 162.05C44.424 163.181 44.5764 164.344 44.7837 165.501C44.7924 165.543 44.7968 165.581 44.8045 165.617C45.8265 171.22 48.1239 176.726 53.0728 178.492C64.2865 182.489 68.2901 172.89 69.8922 167.293C70.0688 166.671 70.2289 165.98 70.3693 165.242C70.3747 165.213 70.3791 165.183 70.3879 165.149C70.5425 164.32 70.6774 163.437 70.7914 162.529C70.8781 161.855 70.9504 161.172 71.0151 160.484C71.1785 158.811 71.2849 157.134 71.3551 155.646C71.5185 152.244 69.4777 149.114 66.2856 147.892C61.6865 146.127 54.7045 144.729 48.0866 148.474C45.6423 149.857 44.1104 152.419 44.0555 155.223C44.027 156.772 44.05 158.671 44.1981 160.714Z" fill="#FBA691"/>
<path d="M57.9639 173C57.0356 173 56.2149 172.591 56.1803 172.574C56.0011 172.484 55.9473 172.292 56.056 172.147C56.1671 172.002 56.4001 171.957 56.5793 172.045C56.5864 172.048 57.2554 172.379 57.9639 172.379C58.7308 172.379 59.4177 172.047 59.4249 172.045C59.6041 171.957 59.8371 172.005 59.9458 172.151C60.0533 172.296 59.9959 172.487 59.8179 172.575C59.7809 172.592 58.9471 173 57.9639 173Z" fill="#FD8E73"/>
<path d="M57.1645 169.852C63.0477 169.048 64.5094 170.549 64.7847 172.289C63.1903 173.964 61.4094 174.929 59.7722 175.297C57.7534 175.755 53.6642 175.713 50.6793 173.365C50.3799 172.012 50.0389 168.061 57.1645 169.852ZM44.0449 160.997C44.0756 161.436 44.1129 161.881 44.1568 162.331C44.2708 163.464 44.4232 164.626 44.6305 165.783C44.6393 165.824 44.6448 165.864 44.6513 165.9C45.6734 171.501 47.9707 177.008 52.9196 178.774C64.1333 182.77 68.137 173.171 69.7391 167.574C69.9156 166.953 70.0757 166.262 70.2161 165.524C70.2216 165.496 70.2271 165.465 70.2347 165.431C70.3904 164.602 70.5253 163.72 70.6394 162.811C70.7249 162.138 70.7973 161.454 70.862 160.766L69.182 161.204C68.7017 163.738 67.9812 167.429 67.0426 169.151C65.572 165.568 57.3981 168.527 57.3981 168.527C57.3981 168.527 50.1091 165.941 47.6406 168.511C46.4673 165.532 45.4244 161.204 45.4244 161.204L44.0449 160.997Z" fill="#2E3062"/>
<path d="M53.834 161.25C53.834 162.061 53.4151 162.719 52.8986 162.719C52.3821 162.719 51.9654 162.061 51.9654 161.25C51.9654 160.439 52.3821 159.782 52.8986 159.782C53.4151 159.782 53.834 160.439 53.834 161.25Z" fill="#2E3062"/>
<path d="M64.5996 161.25C64.5996 162.061 64.1818 162.719 63.6642 162.719C63.1488 162.719 62.731 162.061 62.731 161.25C62.731 160.439 63.1488 159.782 63.6642 159.782C64.1818 159.782 64.5996 160.439 64.5996 161.25Z" fill="#2E3062"/>
<path d="M66.2287 156.425C66.2287 156.425 63.279 155.26 61.006 156.241L61.2347 157.501C61.2347 157.501 64.5674 157.219 66.2479 157.899C66.3978 157.414 66.4206 156.923 66.2287 156.425Z" fill="#2E3062"/>
<path d="M49.6525 156.24C49.6525 156.24 52.6023 155.075 54.873 156.055L54.6465 157.316C54.6465 157.316 51.3138 157.035 49.6322 157.714C49.4835 157.229 49.4604 156.739 49.6525 156.24Z" fill="#2E3062"/>
<path d="M58.368 167.865C57.7627 167.939 57.1333 167.778 57.0357 167.751C56.8438 167.699 56.7297 167.501 56.7824 167.308C56.835 167.115 57.0335 167.001 57.2254 167.054C57.5664 167.146 58.3691 167.258 58.6817 167.015C58.742 166.967 58.8209 166.88 58.8176 166.659C58.7935 165.393 57.9371 161.241 57.9283 161.199C57.8888 161.005 58.0138 160.814 58.209 160.774C58.4053 160.732 58.5961 160.859 58.6367 161.054C58.6718 161.227 59.5151 165.313 59.5392 166.647C59.5491 167.148 59.3199 167.433 59.1247 167.585C58.913 167.75 58.6422 167.831 58.368 167.865Z" fill="#FB876B"/>
<path d="M70.9726 160.922H69.3343C69.5153 159.279 68.9176 157.295 68.4242 155.973C67.3057 152.975 69.6874 151.653 67.7607 150.151C65.834 148.647 61.0387 149.291 57.7039 149.183C54.3495 149.075 48.9564 149.123 47.6482 149.425C46.3356 149.725 47.055 151.9 47.5364 153.586C48.02 155.266 45.9277 157.13 45.5768 158.872C45.477 159.372 45.4978 160.117 45.5779 160.922H44.2126C44.0503 158.801 44.0262 156.826 44.0558 155.224C44.1095 152.42 45.6426 149.858 48.0858 148.476C54.7037 144.729 61.6867 146.126 66.2836 147.891C69.4758 149.114 71.5177 152.243 71.3554 155.646C71.2775 157.264 71.158 159.103 70.9726 160.922Z" fill="#2E3062"/>
<path d="M60.3781 162.132C60.3781 164.133 62.0088 165.761 64.0133 165.761C66.0179 165.761 67.6485 164.133 67.6485 162.132C67.6485 160.13 66.0179 158.502 64.0133 158.502C62.0088 158.502 60.3781 160.13 60.3781 162.132ZM59.707 162.132C59.707 159.76 61.6381 157.832 64.0133 157.832C66.3874 157.832 68.3196 159.76 68.3196 162.132C68.3196 164.503 66.3874 166.432 64.0133 166.432C61.6381 166.432 59.707 164.503 59.707 162.132Z" fill="white"/>
<path d="M48.632 162.132C48.632 164.133 50.2627 165.761 52.2672 165.761C54.2718 165.761 55.9024 164.133 55.9024 162.132C55.9024 160.13 54.2718 158.502 52.2672 158.502C50.2627 158.502 48.632 160.13 48.632 162.132ZM47.9609 162.132C47.9609 159.76 49.892 157.832 52.2672 157.832C54.6414 157.832 56.5735 159.76 56.5735 162.132C56.5735 164.503 54.6414 166.432 52.2672 166.432C49.892 166.432 47.9609 164.503 47.9609 162.132Z" fill="white"/>
<path d="M67.8728 161.013C67.9583 161.013 68.0439 160.98 68.1086 160.915C68.1283 160.897 70.0846 159.001 72.6506 159.598C72.8305 159.642 73.0125 159.529 73.0542 159.349C73.0959 159.168 72.984 158.988 72.8042 158.946C69.8686 158.262 67.7259 160.352 67.6359 160.44C67.5043 160.57 67.5043 160.783 67.6348 160.914C67.7006 160.98 67.7862 161.013 67.8728 161.013Z" fill="white"/>
<path d="M48.9323 160.621C49.042 160.621 49.1494 160.567 49.213 160.469C49.315 160.314 49.2712 160.106 49.1165 160.005C48.9882 159.921 45.9408 157.958 43.3474 158.385C43.1654 158.414 43.0403 158.587 43.071 158.77C43.1018 158.952 43.2728 159.076 43.457 159.046C45.7906 158.662 48.7196 160.547 48.7492 160.566C48.8062 160.603 48.8687 160.621 48.9323 160.621Z" fill="white"/>
<path d="M56.338 161.058C56.3446 161.047 57.1429 159.971 58.1912 159.971C59.2297 159.971 59.9501 161.045 59.9578 161.056L60.5193 160.69C60.482 160.633 59.597 159.301 58.1912 159.301C56.7953 159.301 55.8335 160.61 55.793 160.666L56.338 161.058Z" fill="white"/>
<path d="M98.9622 235.58L108.554 242.927C109.767 243.854 111.504 243.625 112.433 242.413L131.068 218.155L138.776 208.123L124.795 197.414L120.229 203.357L98.4512 231.707C97.5202 232.916 97.7494 234.649 98.9622 235.58Z" fill="#FFAA01"/>
<path d="M119.65 203.601C121.592 208.17 124.931 213.912 130.488 218.399L138.197 208.367L124.215 197.657L119.65 203.601Z" fill="#F88800"/>
<path d="M70.5161 282.184L71.0874 282.622C73.3267 284.337 76.5331 283.914 78.2503 281.679L108.222 242.663L99.5428 236.016L69.5709 275.033C67.8536 277.268 68.2769 280.47 70.5161 282.184Z" fill="#2E3062"/>
<path d="M126.025 142.074C140.2 123.817 166.607 120.474 184.894 134.627C203.179 148.781 206.523 175.149 192.348 193.406C178.176 211.663 151.768 215.004 133.481 200.852C115.196 186.698 111.852 160.33 126.025 142.074ZM120.018 137.425C103.252 159.023 107.193 190.105 128.825 206.849C150.459 223.592 181.587 219.654 198.354 198.055C215.123 176.455 211.182 145.373 189.55 128.63C167.917 111.886 136.787 115.825 120.018 137.425Z" fill="#2E3062"/>
<g opacity="0.4">
<g opacity="0.4">
<path opacity="0.4" d="M117.902 156.667C111.929 178.982 125.252 201.992 147.604 207.957C149.521 208.469 151.444 208.838 153.362 209.072C158.331 209.68 163.257 209.38 167.949 208.28C172.841 207.133 177.475 205.121 181.628 202.369C188.159 198.05 193.503 191.908 196.809 184.438C197.675 182.482 198.401 180.431 198.972 178.299C204.945 155.982 191.622 132.972 169.271 127.008C167.135 126.438 164.994 126.043 162.86 125.817C154.728 124.95 146.727 126.513 139.722 130.01C135.262 132.232 131.204 135.238 127.77 138.901C124.476 142.411 121.758 146.525 119.806 151.127C119.052 152.904 118.414 154.753 117.902 156.667Z" fill="white"/>
</g>
</g>
<g opacity="0.4">
<g opacity="0.4">
<path opacity="0.4" d="M139.967 130.469L181.816 202.861C188.344 198.537 193.687 192.387 196.994 184.911L163.091 126.262C154.965 125.399 146.969 126.967 139.967 130.469Z" fill="white"/>
</g>
</g>
<g opacity="0.4">
<g opacity="0.4">
<path opacity="0.4" d="M119.783 150.852L153.293 208.823C158.257 209.431 163.182 209.127 167.87 208.025L127.746 138.614C124.453 142.129 121.734 146.246 119.783 150.852Z" fill="white"/>
</g>
</g>
<path d="M78.1441 256.372H79.8329C81.3418 256.372 82.4888 255.485 83.1654 254.139C83.4648 253.544 83.8716 252.455 84.1523 252.081C84.9419 251.03 87.0956 249.267 87.9026 249.212C88.7097 249.159 88.5606 250.658 87.9904 251.315C87.4201 251.972 86.5209 252.807 86.0384 253.737C85.5559 254.664 89.9851 256.547 91.7835 256.986C93.5819 257.423 96.74 256.46 97.046 257.949C97.3541 259.438 94.9855 259.657 94.9855 259.657C94.9855 259.657 95.6796 260.998 93.7135 262.108C93.7135 262.108 94.0644 263.422 92.7923 264.123C92.7923 264.123 92.9371 265.787 91.4611 266.225C89.9851 266.662 85.3805 267.997 76.3457 262.523L78.1441 256.372Z" fill="#FBA691"/>
<path d="M47.2792 218.27C50.6896 231.141 54.0364 236.83 54.0364 236.83C54.0364 236.83 57.8635 242.669 65.7282 248.194C71.1914 252.031 79.9696 256.567 79.9696 256.567C78.4552 258.532 77.386 262.418 77.9705 263.581C59.7222 263.581 43.7614 246.318 43.7614 246.318C30.9916 224.13 30.1593 206.061 30.3687 199.477C30.4422 197.16 31.1177 194.889 32.3963 192.953C33.0565 191.953 33.8822 191.029 34.8516 190.574C34.8516 190.574 40.3257 192.61 42.2283 199.024C44.1298 205.436 47.2792 218.27 47.2792 218.27Z" fill="#542BDA"/>
<path d="M130.335 220.29C130.335 220.29 126.276 218.857 124.41 219.632C122.545 220.408 127.715 223.203 127.715 223.203C127.715 223.203 121.448 219.873 120.365 221.216C119.283 222.557 125.279 225.968 125.279 225.968C125.279 225.968 120.689 224.356 119.756 225.302C118.823 226.248 123.103 228.919 123.103 228.919C123.103 228.919 119.335 228.011 118.549 228.65C117.763 229.289 121.103 231.968 123.223 232.677C125.342 233.387 125.685 230.406 125.685 230.406C125.685 230.406 127.678 228.653 127.413 227.436C127.413 227.436 129.482 226.043 129.628 224.62C129.628 224.62 132.547 222.052 130.335 220.29Z" fill="#FBA691"/>
<path d="M235.887 396.69C235.887 400.789 212.932 404.113 184.617 404.113C156.301 404.113 133.347 400.789 133.347 396.69C133.347 392.591 156.301 389.268 184.617 389.268C212.932 389.268 235.887 392.591 235.887 396.69Z" fill="#E8E8F9"/>
<path d="M466.951 93.0746C469.199 93.0746 471.029 91.2483 471.029 89.0037C471.029 86.758 469.199 84.9317 466.951 84.9317C464.702 84.9317 462.873 86.758 462.873 89.0037C462.873 91.2483 464.702 93.0746 466.951 93.0746ZM466.951 83.0703C470.227 83.0703 472.892 85.7321 472.892 89.0037C472.892 92.2742 470.227 94.9359 466.951 94.9359C463.676 94.9359 461.01 92.2742 461.01 89.0037C461.01 85.7321 463.676 83.0703 466.951 83.0703Z" fill="#6B5EFF"/>
<path d="M445.418 72.0629C447.667 72.0629 449.496 70.2365 449.496 67.992C449.496 65.7463 447.667 63.92 445.418 63.92C443.17 63.92 441.341 65.7463 441.341 67.992C441.341 70.2365 443.17 72.0629 445.418 72.0629ZM445.418 62.0586C448.694 62.0586 451.36 64.7203 451.36 67.992C451.36 71.2625 448.694 73.9242 445.418 73.9242C442.142 73.9242 439.477 71.2625 439.477 67.992C439.477 64.7203 442.142 62.0586 445.418 62.0586Z" fill="#FFAA01"/>
<path d="M438.452 43C438.967 43 439.385 43.4161 439.385 43.9307V48.0344C439.385 48.548 438.967 48.9651 438.452 48.9651C437.937 48.9651 437.52 48.548 437.52 48.0344V43.9307C437.52 43.4161 437.937 43 438.452 43Z" fill="#6B5EFF"/>
<path d="M438.452 35.6719C438.967 35.6719 439.385 36.0879 439.385 36.6026V40.7063C439.385 41.2198 438.967 41.637 438.452 41.637C437.937 41.637 437.52 41.2198 437.52 40.7063V36.6026C437.52 36.0879 437.937 35.6719 438.452 35.6719Z" fill="#6B5EFF"/>
<path d="M432.577 41.5352H436.269C436.783 41.5352 437.201 41.9523 437.201 42.4658C437.201 42.9794 436.783 43.3965 436.269 43.3965H432.577C432.061 43.3965 431.645 42.9794 431.645 42.4658C431.645 41.9523 432.061 41.5352 432.577 41.5352Z" fill="#6B5EFF"/>
<path d="M440.41 41.5352H444.102C444.616 41.5352 445.034 41.9523 445.034 42.4658C445.034 42.9794 444.616 43.3965 444.102 43.3965H440.41C439.894 43.3965 439.477 42.9794 439.477 42.4658C439.477 41.9523 439.894 41.5352 440.41 41.5352Z" fill="#6B5EFF"/>
<path d="M470.752 65.9688C471.266 65.9688 471.684 66.3859 471.684 66.8994V71.0032C471.684 71.5178 471.266 71.9339 470.752 71.9339C470.236 71.9339 469.818 71.5178 469.818 71.0032V66.8994C469.818 66.3859 470.236 65.9688 470.752 65.9688Z" fill="#FFAA01"/>
<path d="M470.752 58.6367C471.266 58.6367 471.684 59.0528 471.684 59.5674V63.6712C471.684 64.1847 471.266 64.6018 470.752 64.6018C470.236 64.6018 469.818 64.1847 469.818 63.6712V59.5674C469.818 59.0528 470.236 58.6367 470.752 58.6367Z" fill="#FFAA01"/>
<path d="M464.877 64.5H468.57C469.085 64.5 469.502 64.9161 469.502 65.4307C469.502 65.9442 469.085 66.3614 468.57 66.3614H464.877C464.363 66.3614 463.945 65.9442 463.945 65.4307C463.945 64.9161 464.363 64.5 464.877 64.5Z" fill="#FFAA01"/>
<path d="M472.711 64.5H476.404C476.918 64.5 477.336 64.9161 477.336 65.4307C477.336 65.9442 476.918 66.3614 476.404 66.3614H472.711C472.197 66.3614 471.779 65.9442 471.779 65.4307C471.779 64.9161 472.197 64.5 472.711 64.5Z" fill="#FFAA01"/>
<path d="M109.532 53.819C109.532 56.0636 111.361 57.8899 113.609 57.8899C115.858 57.8899 117.687 56.0636 117.687 53.819C117.687 51.5744 115.858 49.7481 113.609 49.7481C111.361 49.7481 109.532 51.5744 109.532 53.819ZM119.552 53.819C119.552 57.0895 116.886 59.7513 113.609 59.7513C110.334 59.7513 107.668 57.0895 107.668 53.819C107.668 50.5474 110.334 47.8867 113.609 47.8867C116.886 47.8867 119.552 50.5474 119.552 53.819Z" fill="#6B5EFF"/>
<path d="M132.044 34.2721C132.044 36.5167 133.873 38.343 136.121 38.343C138.37 38.343 140.199 36.5167 140.199 34.2721C140.199 32.0275 138.37 30.2012 136.121 30.2012C133.873 30.2012 132.044 32.0275 132.044 34.2721ZM142.063 34.2721C142.063 37.5426 139.398 40.2044 136.121 40.2044C132.845 40.2044 130.18 37.5426 130.18 34.2721C130.18 31.0005 132.845 28.3398 136.121 28.3398C139.398 28.3398 142.063 31.0005 142.063 34.2721Z" fill="#FFAA01"/>
<path d="M143.982 62.0127C143.982 62.5262 143.565 62.9434 143.05 62.9434H138.94C138.426 62.9434 138.008 62.5262 138.008 62.0127C138.008 61.4992 138.426 61.082 138.94 61.082H143.05C143.565 61.082 143.982 61.4992 143.982 62.0127Z" fill="#6B5EFF"/>
<path d="M150.837 62.0127C150.837 62.5262 150.421 62.9434 149.905 62.9434H145.795C145.281 62.9434 144.863 62.5262 144.863 62.0127C144.863 61.4992 145.281 61.082 145.795 61.082H149.905C150.421 61.082 150.837 61.4992 150.837 62.0127Z" fill="#6B5EFF"/>
<path d="M144.768 56.6377V60.3243C144.768 60.8378 144.352 61.255 143.836 61.255C143.322 61.255 142.904 60.8378 142.904 60.3243V56.6377C142.904 56.1242 143.322 55.707 143.836 55.707C144.352 55.707 144.768 56.1242 144.768 56.6377Z" fill="#6B5EFF"/>
<path d="M144.768 64.4541V68.1407C144.768 68.6542 144.352 69.0714 143.836 69.0714C143.322 69.0714 142.904 68.6542 142.904 68.1407V64.4541C142.904 63.9406 143.322 63.5234 143.836 63.5234C144.352 63.5234 144.768 63.9406 144.768 64.4541Z" fill="#6B5EFF"/>
<path d="M99.9391 30.2471C99.9391 30.7606 99.5224 31.1778 99.007 31.1778H94.8969C94.3826 31.1778 93.9648 30.7606 93.9648 30.2471C93.9648 29.7325 94.3826 29.3164 94.8969 29.3164H99.007C99.5224 29.3164 99.9391 29.7325 99.9391 30.2471Z" fill="#FFAA01"/>
<path d="M106.791 30.2471C106.791 30.7606 106.374 31.1778 105.859 31.1778H101.749C101.234 31.1778 100.816 30.7606 100.816 30.2471C100.816 29.7325 101.234 29.3164 101.749 29.3164H105.859C106.374 29.3164 106.791 29.7325 106.791 30.2471Z" fill="#FFAA01"/>
<path d="M101.702 24.3838V28.0704C101.702 28.5839 101.284 29.0011 100.77 29.0011C100.256 29.0011 99.8379 28.5839 99.8379 28.0704V24.3838C99.8379 23.8692 100.256 23.4531 100.77 23.4531C101.284 23.4531 101.702 23.8692 101.702 24.3838Z" fill="#FFAA01"/>
<path d="M101.702 32.2041V35.8907C101.702 36.4042 101.284 36.8214 100.77 36.8214C100.256 36.8214 99.8379 36.4042 99.8379 35.8907V32.2041C99.8379 31.6906 100.256 31.2734 100.77 31.2734C101.284 31.2734 101.702 31.6906 101.702 32.2041Z" fill="#FFAA01"/>
<path d="M21.9863 186.946H10.1081C6.14831 186.946 2.9375 183.74 2.9375 179.785V167.926C2.9375 163.972 6.14831 160.766 10.1081 160.766H21.9863C25.9472 160.766 29.158 163.972 29.158 167.926V179.785C29.158 183.74 25.9472 186.946 21.9863 186.946Z" fill="#FFAA01"/>
<path d="M20.9351 168.512C19.4021 167.098 17.0027 167.194 15.5881 168.725C14.1724 170.256 14.2689 172.651 15.802 174.064C17.335 175.477 19.7343 175.381 21.1489 173.85C22.5646 172.32 22.4681 169.925 20.9351 168.512ZM14.5387 175.431C12.2512 173.323 12.1076 169.748 14.2185 167.464C16.3305 165.18 19.9098 165.036 22.1984 167.144C24.4869 169.253 24.6295 172.827 22.5175 175.112C20.4065 177.397 16.8262 177.54 14.5387 175.431Z" fill="white"/>
<path d="M8.12977 181.831C7.75145 181.482 7.72842 180.894 8.07714 180.517L14.3156 173.768C14.6632 173.391 15.2532 173.367 15.6315 173.715C16.0099 174.063 16.0329 174.651 15.6842 175.029L9.44568 181.778C9.09696 182.156 8.507 182.179 8.12977 181.831Z" fill="white"/>
<path d="M467.336 141.501H455.458C451.498 141.501 448.287 138.295 448.287 134.34V122.481C448.287 118.526 451.498 115.32 455.458 115.32H467.336C471.296 115.32 474.507 118.526 474.507 122.481V134.34C474.507 138.295 471.296 141.501 467.336 141.501Z" fill="#FFAA01"/>
<path d="M457.096 133.53V123.5C457.096 122.864 457.771 122.455 458.336 122.75L463.241 125.309L467.95 127.765C468.557 128.081 468.557 128.948 467.95 129.265L463.241 131.72L458.336 134.28C457.771 134.574 457.096 134.165 457.096 133.53Z" fill="white"/>
<path d="M384.904 73.1008H283.081C275.936 73.1008 270.145 67.3174 270.145 60.184V58.3621C270.145 51.2287 275.936 45.4453 283.081 45.4453H384.904C392.048 45.4453 397.84 51.2287 397.84 58.3621V60.184C397.84 67.3174 392.048 73.1008 384.904 73.1008Z" fill="#FFAA01"/>
<path d="M383.753 62.7308V66.5379C383.253 66.2247 381.689 65.0991 380.776 62.7308H383.753ZM380.07 62.7308C380.414 63.7031 380.895 64.5834 381.499 65.3499C381.811 65.7451 382.152 66.1065 382.514 66.4262C380.406 65.9795 378.551 64.6185 377.486 62.7308H380.07ZM376.534 58.5307C376.602 57.5223 376.865 56.5544 377.322 55.6522H379.983C379.666 56.5851 379.488 57.553 379.452 58.5307H376.534ZM383.753 59.191V62.0695H380.549C380.28 61.1793 380.133 60.2125 380.11 59.191H383.753ZM377.698 54.9909C378.772 53.3058 380.47 52.109 382.405 51.6689C382.024 52.0685 381.667 52.5054 381.342 52.9718C380.9 53.6047 380.528 54.2835 380.233 54.9909H377.698ZM383.753 55.6522V58.5307H380.115C380.154 57.5508 380.346 56.5829 380.685 55.6522H383.753ZM380.954 54.9909C381.209 54.4237 381.518 53.8773 381.874 53.3649C382.565 52.3696 383.259 51.7389 383.545 51.5003C383.614 51.4948 383.684 51.4915 383.753 51.4882V54.9909H380.954ZM379.86 62.0695H377.154C376.752 61.1596 376.54 60.1917 376.519 59.191H379.448C379.471 60.2027 379.609 61.1706 379.86 62.0695ZM391.649 59.191C391.63 60.1917 391.415 61.1596 391.014 62.0695H388.385C388.636 61.1706 388.775 60.2027 388.797 59.191H391.649ZM388.793 58.5307C388.757 57.553 388.578 56.5851 388.262 55.6522H390.849C391.303 56.5533 391.567 57.5212 391.634 58.5307H388.793ZM384.415 58.5307V55.6522H387.56C387.9 56.5796 388.092 57.5475 388.131 58.5307H384.415ZM388.013 54.9909C387.718 54.2835 387.344 53.6047 386.904 52.9718C386.584 52.5142 386.236 52.0849 385.863 51.6908C387.756 52.1484 389.417 53.3375 390.472 54.9909H388.013ZM384.415 54.9909V51.4882C384.513 51.4926 384.612 51.4992 384.709 51.5068C385.122 51.855 386.412 53.0496 387.291 54.9909H384.415ZM387.472 62.7308C387.16 63.5389 386.747 64.2758 386.242 64.9207C385.454 65.9258 384.664 66.4371 384.415 66.5838V62.7308H387.472ZM386.746 65.3499C387.35 64.5834 387.831 63.7031 388.176 62.7308H390.682C389.624 64.6119 387.846 65.9346 385.755 66.4054C386.109 66.09 386.441 65.7364 386.746 65.3499ZM384.415 62.0695V59.191H388.135C388.112 60.2081 387.965 61.1771 387.696 62.0695H384.415ZM384.084 50.8203C379.547 50.8203 375.855 54.5058 375.855 59.0355C375.855 63.5663 379.547 67.2517 384.084 67.2517C388.621 67.2517 392.313 63.5663 392.313 59.0355C392.313 54.5058 388.621 50.8203 384.084 50.8203Z" fill="#F88800"/>
<path d="M362.775 50.332H283.676C278.914 50.332 275.041 54.1993 275.041 58.9534C275.041 63.7076 278.914 67.5748 283.676 67.5748H362.775C367.536 67.5748 371.409 63.7076 371.409 58.9534C371.409 54.1993 367.536 50.332 362.775 50.332ZM362.775 51.1401C367.09 51.1401 370.6 54.6449 370.6 58.9534C370.6 63.2619 367.09 66.7668 362.775 66.7668H283.676C279.36 66.7668 275.85 63.2619 275.85 58.9534C275.85 54.6449 279.36 51.1401 283.676 51.1401H362.775Z" fill="#F88800"/>
<path d="M450.244 401.58C450.244 405.678 425.285 409 394.497 409C363.708 409 338.75 405.678 338.75 401.58C338.75 397.48 363.708 394.156 394.497 394.156C425.285 394.156 450.244 397.48 450.244 401.58Z" fill="#E8E8F9"/>
<path d="M411.841 391.561H411.761C411.761 391.561 401.87 390.273 401.87 382.207V326.418H392.523V382.207C392.523 390.273 382.633 391.561 382.633 391.561H382.553C380.161 391.561 377.999 392.527 376.433 394.094C374.867 395.656 373.896 397.818 373.896 400.205H420.497C420.497 395.43 416.622 391.561 411.841 391.561Z" fill="#542BDA"/>
<path d="M441.993 326.812H352.365C353.846 318.647 360.978 312.715 369.291 312.738L397.178 312.813L425.066 312.738C433.38 312.715 440.511 318.647 441.993 326.812Z" fill="#6B5EFF"/>
<path d="M376.668 224.289C376.668 224.289 363.052 242.418 361.242 258.228C359.962 269.394 376.668 286.081 376.668 286.081L382.42 283.221L376.685 270.306C374.643 264.017 372.13 261.532 373.987 255.185L378.141 246.241L376.668 224.289Z" fill="#542BDA"/>
<path d="M419.718 224.289C419.718 224.289 433.155 243.62 434.268 259.494C435.228 273.18 418.778 286.354 418.778 286.354L414.027 283.993L420.607 270.945C422.648 264.655 423.618 260.863 420.835 254.019L417.303 246.515L419.718 224.289Z" fill="#542BDA"/>
<path d="M379.008 265.603L369.984 294.268C369.984 294.268 409.054 299.243 421.003 296.023L414.935 264.804L419.137 224.043C413.289 221.582 407.09 220.01 400.76 219.554C391.52 218.888 385.684 220.41 376.236 224.316L379.008 265.603Z" fill="#6B5EFF"/>
<path d="M389.276 233.322C397.895 232.313 405.916 226.403 406.28 226.131C406.492 225.972 406.536 225.672 406.377 225.458C406.218 225.246 405.917 225.203 405.703 225.361C405.61 225.431 396.172 232.382 387.096 232.505C386.827 232.507 386.618 232.727 386.621 232.992C386.624 233.257 386.843 233.471 387.108 233.466C387.833 233.456 388.557 233.406 389.276 233.322Z" fill="#542BDA"/>
<path d="M395.43 386.523L396.134 392.853L402.876 393.007L403.441 387.755L395.43 386.523Z" fill="#FBA691"/>
<path d="M394.29 286.425C394.29 286.425 376.832 285.468 370.92 290.299C365.007 295.129 366.196 308.99 372.219 312.775C378.244 316.56 388.511 323.997 388.511 323.997L395.043 388.833L403.675 389.126C403.675 389.126 411.627 323.997 407.595 311.383C403.563 298.77 394.29 286.425 394.29 286.425Z" fill="#001030"/>
<path d="M404.651 385.751C405.12 387.267 404.896 388.733 404.428 390.192L394.496 389.971C394.146 388.526 394.093 387.077 394.303 385.623L404.651 385.751Z" fill="#2E3062"/>
<path d="M419.099 285.847H373.287L369.053 261.127C368.686 258.987 370.337 257.031 372.514 257.031H419.872C422.047 257.031 423.7 258.987 423.332 261.127L419.099 285.847Z" fill="#FFAA01"/>
<path d="M415.783 291.235H377.867C375.674 291.235 373.896 289.461 373.896 287.271V285.859H419.754V287.271C419.754 289.461 417.976 291.235 415.783 291.235Z" fill="#F88800"/>
<path d="M400.326 272.601C400.326 274.795 398.544 276.574 396.347 276.574C394.149 276.574 392.367 274.795 392.367 272.601C392.367 270.407 394.149 268.627 396.347 268.627C398.544 268.627 400.326 270.407 400.326 272.601Z" fill="#FDCC50"/>
<path d="M367.045 368.934L365.551 375.198L371.6 376.391L374.064 370.798L367.045 368.934Z" fill="#FBA691"/>
<path d="M403.922 285.352C403.922 285.352 392.23 281.327 385.377 289.781C378.522 298.235 367.045 369.595 367.045 369.595L374.913 372.838L400.205 309.462C400.205 309.462 420.802 321.198 423.297 304.514C425.272 291.312 403.922 285.352 403.922 285.352Z" fill="#2E3062"/>
<path d="M376.515 369.683C376.488 371.321 375.794 372.687 374.862 373.968L365.193 370.554C365.315 369.023 365.731 367.585 366.407 366.226L376.515 369.683Z" fill="#524E84"/>
<path d="M370.437 373.939C370.437 373.939 366.771 372.081 365.692 371.869C364.612 371.656 355.699 377.972 353.173 377.909C348.593 377.798 347.126 384.512 349.729 385.426C357.258 388.069 371.192 387.74 371.192 387.74C371.192 387.74 374.287 379.39 374.345 376.569C374.403 373.75 372.426 375.203 370.437 373.939Z" fill="#FFAA01"/>
<path d="M362.119 379.981C362.25 380.04 362.405 380.049 362.55 379.994C362.829 379.886 362.965 379.575 362.853 379.298C362.816 379.206 361.914 377.025 360.43 376.012C358.457 374.662 356.64 375.599 356.563 375.639C356.298 375.78 356.201 376.106 356.347 376.366C356.492 376.628 356.826 376.726 357.092 376.584C357.141 376.56 358.402 375.933 359.809 376.891C361.018 377.717 361.828 379.671 361.837 379.69C361.892 379.823 361.995 379.924 362.119 379.981Z" fill="white"/>
<path d="M364.075 379.001C364.207 379.06 364.362 379.069 364.507 379.015C364.787 378.906 364.923 378.594 364.811 378.318C364.774 378.226 363.87 376.045 362.387 375.031C360.412 373.681 358.598 374.618 358.521 374.66C358.255 374.8 358.158 375.126 358.305 375.387C358.45 375.648 358.784 375.746 359.049 375.604C359.099 375.58 360.361 374.952 361.767 375.912C362.98 376.74 363.786 378.69 363.793 378.709C363.848 378.844 363.952 378.944 364.075 379.001Z" fill="white"/>
<path d="M360.162 380.958C360.292 381.019 360.448 381.026 360.593 380.972C360.873 380.863 361.01 380.551 360.897 380.275C360.859 380.183 359.957 378.002 358.473 376.988C356.498 375.638 354.683 376.576 354.607 376.616C354.341 376.757 354.245 377.084 354.39 377.344C354.535 377.605 354.87 377.702 355.135 377.561C355.185 377.537 356.447 376.909 357.853 377.869C359.065 378.697 359.871 380.648 359.879 380.666C359.934 380.8 360.038 380.902 360.162 380.958Z" fill="white"/>
<path d="M399.609 392.569C399.609 392.569 403.361 391.432 404.411 391.41C405.46 391.39 412.783 398.799 415.165 399.16C419.486 399.814 419.746 406.363 417.15 406.789C409.638 408.024 396.605 405.409 396.605 405.409C396.605 405.409 395.088 397.05 395.501 394.392C395.916 391.734 397.53 393.426 399.609 392.569Z" fill="#FFAA01"/>
<path d="M405.876 399.618C405.742 399.652 405.595 399.636 405.468 399.559C405.223 399.413 405.147 399.096 405.299 398.856C405.35 398.775 406.559 396.876 408.122 396.172C410.199 395.23 411.75 396.411 411.815 396.463C412.041 396.638 412.077 396.96 411.896 397.181C411.717 397.403 411.388 397.44 411.161 397.263C411.119 397.23 410.039 396.433 408.558 397.1C407.286 397.675 406.2 399.375 406.189 399.393C406.115 399.509 406.001 399.587 405.876 399.618Z" fill="white"/>
<path d="M403.917 398.151C403.784 398.185 403.637 398.169 403.51 398.092C403.264 397.944 403.188 397.628 403.34 397.388C403.391 397.307 404.601 395.409 406.163 394.703C408.242 393.761 409.79 394.943 409.856 394.995C410.082 395.17 410.118 395.492 409.938 395.713C409.757 395.935 409.428 395.971 409.202 395.795C409.16 395.762 408.08 394.964 406.599 395.632C405.322 396.21 404.242 397.907 404.231 397.925C404.157 398.041 404.042 398.12 403.917 398.151Z" fill="white"/>
<path d="M407.834 401.085C407.7 401.12 407.553 401.104 407.426 401.026C407.18 400.879 407.104 400.563 407.256 400.323C407.307 400.241 408.517 398.342 410.079 397.637C412.157 396.694 413.707 397.877 413.773 397.928C413.997 398.103 414.035 398.426 413.854 398.647C413.674 398.869 413.344 398.905 413.118 398.729C413.076 398.697 411.995 397.899 410.516 398.565C409.238 399.144 408.157 400.841 408.146 400.858C408.073 400.975 407.959 401.053 407.834 401.085Z" fill="white"/>
<path d="M383.5 201.608C383.5 201.608 377.895 192.043 382.621 184.656C387.348 177.27 397.387 177.966 399.987 178.547C402.587 179.128 417.559 186.137 408.504 203.135L383.5 201.608Z" fill="#2E3062"/>
<path d="M384.271 198.926C384.271 198.926 382.003 195.906 380.317 198.402C378.629 200.901 381.014 208.276 385.144 206.476L384.271 198.926Z" fill="#FB876B"/>
<path d="M384.34 203.998C384.187 203.998 384.047 203.897 384.003 203.744C383.364 201.466 381 200.543 380.977 200.534C380.798 200.465 380.707 200.265 380.774 200.085C380.844 199.905 381.044 199.815 381.224 199.881C381.335 199.923 383.939 200.932 384.676 203.556C384.728 203.741 384.619 203.932 384.434 203.984C384.403 203.994 384.37 203.998 384.34 203.998Z" fill="#D45C48"/>
<path d="M382.079 202.946C382.013 202.946 381.949 202.927 381.891 202.89C381.728 202.786 381.682 202.57 381.785 202.409C381.803 202.381 382.222 201.745 383.095 201.354C383.271 201.277 383.477 201.354 383.557 201.531C383.635 201.706 383.557 201.913 383.38 201.99C382.704 202.292 382.376 202.782 382.373 202.786C382.306 202.889 382.193 202.946 382.079 202.946Z" fill="#D45C48"/>
<path d="M408.051 198.926C408.051 198.926 410.318 195.906 412.005 198.402C413.693 200.901 411.307 208.276 407.178 206.476L408.051 198.926Z" fill="#FB876B"/>
<path d="M408.504 203.998C408.656 203.998 408.797 203.897 408.839 203.744C409.48 201.466 411.843 200.543 411.866 200.534C412.046 200.465 412.137 200.265 412.069 200.085C412 199.905 411.799 199.815 411.619 199.881C411.508 199.923 408.904 200.932 408.167 203.556C408.116 203.741 408.223 203.932 408.41 203.984C408.44 203.994 408.473 203.998 408.504 203.998Z" fill="#D45C48"/>
<path d="M410.643 202.946C410.708 202.946 410.773 202.927 410.831 202.89C410.993 202.786 411.039 202.57 410.936 202.409C410.919 202.381 410.5 201.745 409.625 201.354C409.451 201.277 409.245 201.354 409.165 201.531C409.087 201.706 409.165 201.913 409.341 201.99C410.018 202.292 410.346 202.782 410.349 202.786C410.416 202.889 410.529 202.946 410.643 202.946Z" fill="#D45C48"/>
<path d="M402.264 212.562V219.897C402.264 219.897 400.073 223.632 397.11 223.887C394.15 224.146 391.52 220.67 391.52 220.67V213.078L402.264 212.562Z" fill="#FBA691"/>
<path d="M402.264 212.562V215.817C400.276 218.02 396.745 218.569 391.52 217.799V213.078L402.264 212.562Z" fill="#FB876B"/>
<path d="M410.058 193.923C409.922 196.774 409.65 200.338 409.106 203.19C408.969 203.9 408.816 204.57 408.644 205.169C407.099 210.574 403.232 219.843 392.405 215.981C387.624 214.278 385.408 208.96 384.42 203.552C383.751 199.878 383.649 196.168 383.698 193.516C383.751 190.808 385.229 188.334 387.59 186.999C393.98 183.382 400.722 184.73 405.162 186.435C408.244 187.617 410.216 190.637 410.058 193.923Z" fill="#FBA691"/>
<path d="M393.473 183.245C393.473 183.245 407.758 206.124 409.728 197.732C412.52 185.84 403.986 178.482 393.473 183.245Z" fill="#2E3062"/>
<path d="M393.22 183.242C383.712 183.312 378.985 194.098 383.393 195.375C389.528 197.152 394.849 188.481 396.486 185.473C395.384 184.748 394.281 184.024 393.22 183.242Z" fill="#2E3062"/>
<path d="M410.111 178.253C410.111 183.437 405.903 187.641 400.71 187.641C395.516 187.641 391.307 183.437 391.307 178.253C391.307 173.068 395.516 168.865 400.71 168.865C405.903 168.865 410.111 173.068 410.111 178.253Z" fill="#2E3062"/>
<path d="M384.684 194.73C384.684 194.73 385.424 197.598 384.414 199.529C383.404 201.458 383.958 204.765 384.414 208.482C384.414 208.482 382.808 206.215 382.715 202.586C382.622 198.956 383.216 195.936 382.715 194.484L384.684 194.73Z" fill="#2E3062"/>
<path d="M407.439 194.73C407.439 194.73 406.699 197.598 407.709 199.529C408.719 201.458 408.164 204.765 407.709 208.482C407.709 208.482 409.313 206.215 409.408 202.586C409.501 198.956 408.907 195.936 409.408 194.484L407.439 194.73Z" fill="#2E3062"/>
<path d="M391.52 199.906C391.52 200.69 391.115 201.324 390.617 201.324C390.118 201.324 389.715 200.69 389.715 199.906C389.715 199.123 390.118 198.488 390.617 198.488C391.115 198.488 391.52 199.123 391.52 199.906Z" fill="#2E3062"/>
<path d="M403.262 199.906C403.262 200.69 402.857 201.324 402.359 201.324C401.86 201.324 401.457 200.69 401.457 199.906C401.457 199.123 401.86 198.488 402.359 198.488C402.857 198.488 403.262 199.123 403.262 199.906Z" fill="#2E3062"/>
<path d="M389.055 195.062C389.805 194.851 391.318 194.489 392.916 194.484C393.337 194.483 393.658 194.857 393.585 195.269L393.583 195.28C393.524 195.61 393.229 195.843 392.893 195.828C391.806 195.777 388.952 195.93 387.605 196.475C387.577 196.241 387.716 195.986 387.912 195.758C388.209 195.413 388.617 195.186 389.055 195.062Z" fill="#2E3062"/>
<path d="M403.886 195.062C403.135 194.851 401.622 194.49 400.025 194.484C399.604 194.483 399.282 194.857 399.356 195.269L399.359 195.28C399.418 195.61 399.713 195.843 400.048 195.828C401.135 195.777 403.99 195.93 405.336 196.475C405.365 196.242 405.225 195.986 405.029 195.758C404.732 195.413 404.324 195.186 403.886 195.062Z" fill="#2E3062"/>
<path d="M396.727 205.697C396.46 205.697 396.192 205.649 395.969 205.516C395.764 205.394 395.511 205.147 395.461 204.666C395.329 203.385 395.655 199.369 395.67 199.199C395.686 199.008 395.854 198.865 396.047 198.88C396.239 198.896 396.382 199.064 396.366 199.257C396.363 199.297 396.028 203.377 396.155 204.593C396.176 204.806 396.263 204.88 396.327 204.917C396.654 205.114 397.411 204.913 397.726 204.786C397.905 204.713 398.11 204.799 398.181 204.977C398.254 205.155 398.168 205.358 397.99 205.431C397.899 205.468 397.316 205.697 396.727 205.697Z" fill="#FB876B"/>
<path d="M396.256 213.686C395.404 213.686 394.65 213.227 394.619 213.207C394.454 213.106 394.405 212.891 394.505 212.727C394.607 212.564 394.82 212.514 394.985 212.614C394.991 212.617 395.606 212.988 396.256 212.988C396.96 212.988 397.59 212.616 397.597 212.612C397.761 212.514 397.975 212.568 398.075 212.732C398.174 212.895 398.121 213.11 397.958 213.208C397.924 213.228 397.158 213.686 396.256 213.686Z" fill="#FB876B"/>
</svg>
